0
SECTION
2
HEADER
9
$INSUNITS
70
4
9
$ACADVER
1
AC1014
9
$HANDSEED
5
FFFF
0
ENDSEC
0
SECTION
2
TABLES
0
TABLE
2
VPORT
5
8
100
AcDbSymbolTable
0
ENDTAB
0
TABLE
2
LTYPE
5
5
100
AcDbSymbolTable
0
LTYPE
5
14
100
AcDbSymbolTableRecord
100
AcDbLinetypeTableRecord
2
BYBLOCK
70
0
0
LTYPE
5
15
100
AcDbSymbolTableRecord
100
AcDbLinetypeTableRecord
2
BYLAYER
70
0
0
ENDTAB
0
TABLE
2
LAYER
5
2
100
AcDbSymbolTable
70
2
0
LAYER
5
50
100
AcDbSymbolTableRecord
100
AcDbLayerTableRecord
2
0
70
0
6
CONTINUOUS
0
ENDTAB
0
TABLE
2
STYLE
5
3
100
AcDbSymbolTable
70
1
0
STYLE
5
11
100
AcDbSymbolTableRecord
100
AcDbTextStyleTableRecord
2
STANDARD
70
0
0
ENDTAB
0
TABLE
2
VIEW
5
6
100
AcDbSymbolTable
70
0
0
ENDTAB
0
TABLE
2
UCS
5
7
100
AcDbSymbolTable
70
0
0
ENDTAB
0
TABLE
2
APPID
5
9
100
AcDbSymbolTable
70
2
0
APPID
5
12
100
AcDbSymbolTableRecord
100
AcDbRegAppTableRecord
2
ACAD
70
0
0
ENDTAB
0
TABLE
2
DIMSTYLE
5
A
100
AcDbSymbolTable
70
1
0
ENDTAB
0
TABLE
2
BLOCK_RECORD
5
1
100
AcDbSymbolTable
70
1
0
BLOCK_RECORD
5
1F
100
AcDbSymbolTableRecord
100
AcDbBlockTableRecord
2
*MODEL_SPACE
0
BLOCK_RECORD
5
1B
100
AcDbSymbolTableRecord
100
AcDbBlockTableRecord
2
*PAPER_SPACE
0
ENDTAB
0
ENDSEC
0
SECTION
2
BLOCKS
0
BLOCK
5
20
100
AcDbEntity
100
AcDbBlockBegin
2
*MODEL_SPACE
0
ENDBLK
5
21
100
AcDbEntity
100
AcDbBlockEnd
0
BLOCK
5
1C
100
AcDbEntity
100
AcDbBlockBegin
2
*PAPER_SPACE
0
ENDBLK
5
1D
100
AcDbEntity
100
AcDbBlockEnd
0
ENDSEC
0
SECTION
2
ENTITIES
0
LWPOLYLINE
5
100
100
AcDbEntity
8
0
100
AcDbPolyline
90
4
70
1
43
0.0
10
170.98306414525103
20
9.7994981452510093
10
170.98306414525103
20
6.8689578547490102
10
169.3025238547491
20
6.8689578547490102
10
169.3025238547491
20
9.7994981452510093
0
LWPOLYLINE
5
101
100
AcDbEntity
8
0
100
AcDbPolyline
90
21
70
1
43
0.0
10
181.24373293052301
20
12.150484000000031
10
176.80398199999999
20
12.150484000000016
42
-0.41421356237309503
10
176.42898199999996
20
12.525484000000031
10
176.42898199999996
20
13.595484000000031
10
174.7939821192
20
13.595484000000035
42
-0.41421356237309503
10
174.59398211920001
20
13.79548400000003
10
174.59398211919995
20
15.49548400000003
42
-0.41421356237309503
10
174.7939821192
20
15.695484000000061
10
176.42898199999996
20
15.695484000000031
10
176.42898199999996
20
16.400484000000031
10
184.55398200000005
20
16.400484000000031
42
-0.41421356237309503
10
187.67898200000005
20
13.275484000000031
10
187.67898200000005
20
13.015484000000033
10
189.31398188080004
20
13.015484000000029
42
-0.41421356237319906
10
189.51398188080009
20
12.815484000000033
10
189.51398188080006
20
11.115484000000031
42
-0.41421356237319906
10
189.31398188080004
20
10.91548400000007
10
187.67898200000005
20
10.915484000000031
10
187.67898200000005
20
10.200484000000031
10
184.22240713224403
20
10.200484000000042
42
-0.29821662669831533
10
183.87871395512252
20
10.425483999999667
42
0.29821662669864285
0
LWPOLYLINE
5
102
100
AcDbEntity
8
0
100
AcDbPolyline
90
4
70
1
43
0.0
10
150.25252385474909
20
6.8689578547490102
10
150.25252385474909
20
9.7994981452510093
10
151.93306414525102
20
9.7994981452510093
10
151.93306414525102
20
6.8689578547490102
0
LWPOLYLINE
5
103
100
AcDbEntity
8
0
100
AcDbPolyline
90
21
70
1
43
0.0
10
143.14373293052299
20
12.150484000000031
10
138.70398199999997
20
12.150484000000034
42
-0.41421356237309503
10
138.32898199999997
20
12.525484000000031
10
138.32898199999994
20
13.595484000000031
10
136.69398211919997
20
13.595484000000035
42
-0.41421356237309503
10
136.49398211919998
20
13.79548400000003
10
136.49398211919993
20
15.49548400000003
42
-0.41421356237309503
10
136.69398211919997
20
15.695484000000061
10
138.32898199999994
20
15.695484000000031
10
138.32898199999994
20
16.400484000000031
10
146.45398200000002
20
16.400484000000031
42
-0.41421356237309503
10
149.57898200000002
20
13.275484000000031
10
149.57898200000002
20
13.015484000000033
10
151.21398188080002
20
13.015484000000029
42
-0.41421356237319906
10
151.41398188080007
20
12.815484000000033
10
151.41398188080004
20
11.115484000000031
42
-0.41421356237319906
10
151.21398188080002
20
10.91548400000007
10
149.57898200000002
20
10.915484000000031
10
149.57898200000002
20
10.200484000000031
10
146.12240713224401
20
10.200484000000031
42
-0.29821662669832794
10
145.7787139551225
20
10.425483999999678
42
0.2982166266986464
0
LWPOLYLINE
5
104
100
AcDbEntity
8
0
100
AcDbPolyline
90
21
70
1
43
0.0
10
162.193732930523
20
12.150484000000031
10
157.75398199999998
20
12.150484000000034
42
-0.41421356237309503
10
157.37898199999998
20
12.525484000000031
10
157.37898199999995
20
13.595484000000031
10
155.74398211919998
20
13.595484000000035
42
-0.41421356237309503
10
155.5439821192
20
13.79548400000003
10
155.54398211919994
20
15.49548400000003
42
-0.41421356237309503
10
155.74398211919998
20
15.695484000000061
10
157.37898199999995
20
15.695484000000031
10
157.37898199999995
20
16.400484000000031
10
165.50398200000004
20
16.400484000000031
42
-0.41421356237309503
10
168.62898200000004
20
13.275484000000031
10
168.62898200000004
20
13.015484000000033
10
170.26398188080003
20
13.015484000000029
42
-0.41421356237319906
10
170.46398188080008
20
12.815484000000033
10
170.46398188080005
20
11.115484000000031
42
-0.41421356237319906
10
170.26398188080003
20
10.91548400000007
10
168.62898200000004
20
10.915484000000031
10
168.62898200000004
20
10.200484000000031
10
165.17240713224402
20
10.200484000000021
42
-0.29821662669834192
10
164.82871395512248
20
10.425483999999692
42
0.29821662669864329
0
LWPOLYLINE
5
105
100
AcDbEntity
8
0
100
AcDbPolyline
90
21
70
1
43
0.0
10
47.893732930522944
20
12.150484000000031
10
43.453981999999925
20
12.150484000000034
42
-0.41421356237309503
10
43.078981999999932
20
12.525484000000031
10
43.078981999999911
20
13.595484000000031
10
41.44398211919993
20
13.595484000000035
42
-0.41421356237309503
10
41.243982119199941
20
13.79548400000003
10
41.243982119199899
20
15.49548400000003
42
-0.41421356237309503
10
41.44398211919993
20
15.695484000000061
10
43.078981999999911
20
15.695484000000031
10
43.078981999999911
20
16.400484000000031
10
51.203981999999982
20
16.400484000000031
42
-0.41421356237309503
10
54.328981999999982
20
13.275484000000031
10
54.328981999999982
20
13.015484000000033
10
55.963981880799963
20
13.015484000000029
42
-0.41421356237319906
10
56.163981880800037
20
12.815484000000033
10
56.163981880799994
20
11.115484000000031
42
-0.41421356237319906
10
55.963981880799963
20
10.91548400000007
10
54.328981999999982
20
10.915484000000031
10
54.328981999999982
20
10.200484000000031
10
50.872407132243978
20
10.200484000000031
42
-0.29821662669832943
10
50.528713955122448
20
10.425483999999681
42
0.29821662669864452
0
LWPOLYLINE
5
106
100
AcDbEntity
8
0
100
AcDbPolyline
90
4
70
1
43
0.0
10
207.40252385474906
20
6.8689578547490102
10
207.40252385474906
20
9.7994981452510093
10
209.08306414525103
20
9.7994981452510093
10
209.08306414525103
20
6.8689578547490102
0
LWPOLYLINE
5
107
100
AcDbEntity
8
0
100
AcDbPolyline
90
4
70
1
43
0.0
10
330.85252385474911
20
64.01746835907656
10
330.85252385474911
20
66.948008649578568
10
332.53306414525105
20
66.948008649578568
10
332.53306414525105
20
64.01746835907656
0
LWPOLYLINE
5
108
100
AcDbEntity
8
0
100
AcDbPolyline
90
21
70
1
43
0.0
10
43.143732930522944
20
50.250484000000036
10
38.703981999999925
20
50.250484000000036
42
-0.41421356237309503
10
38.328981999999925
20
50.625484000000036
10
38.328981999999911
20
51.695484000000036
10
36.69398211919993
20
51.695484000000036
42
-0.41421356237309503
10
36.493982119199934
20
51.895484000000032
10
36.493982119199899
20
53.595484000000027
42
-0.41421356237309503
10
36.69398211919993
20
53.795484000000059
10
38.328981999999911
20
53.795484000000037
10
38.328981999999911
20
54.500484000000036
10
46.453981999999982
20
54.500484000000036
42
-0.41421356237309503
10
49.578981999999982
20
51.375484000000036
10
49.578981999999982
20
51.115484000000038
10
51.213981880799963
20
51.115484000000038
42
-0.41421356237319906
10
51.41398188080003
20
50.915484000000042
10
51.413981880799994
20
49.215484000000032
42
-0.41421356237319906
10
51.213981880799963
20
49.015484000000072
10
49.578981999999982
20
49.015484000000036
10
49.578981999999982
20
48.300484000000033
10
46.122407132243978
20
48.300484000000033
42
-0.298216626698322
10
45.778713955122441
20
48.525483999999679
42
0.2982166266986449
0
LWPOLYLINE
5
109
100
AcDbEntity
8
0
100
AcDbPolyline
90
21
70
1
43
0.0
10
195.54373293052299
20
50.250484000000036
10
191.10398199999997
20
50.250484000000021
42
-0.41421356237309503
10
190.72898199999997
20
50.625484000000036
10
190.72898199999997
20
51.695484000000036
10
189.09398211920001
20
51.695484000000036
42
-0.41421356237309503
10
188.89398211919999
20
51.895484000000032
10
188.89398211919996
20
53.595484000000027
42
-0.41421356237309503
10
189.09398211920001
20
53.795484000000059
10
190.72898199999997
20
53.795484000000037
10
190.72898199999997
20
54.500484000000036
10
198.85398200000003
20
54.500484000000036
42
-0.41421356237309503
10
201.97898200000003
20
51.375484000000036
10
201.97898200000003
20
51.115484000000038
10
203.61398188080003
20
51.115484000000038
42
-0.41421356237319906
10
203.8139818808001
20
50.915484000000042
10
203.81398188080004
20
49.215484000000032
42
-0.41421356237319906
10
203.61398188080003
20
49.015484000000072
10
201.97898200000003
20
49.015484000000036
10
201.97898200000003
20
48.300484000000033
10
198.52240713224404
20
48.300484000000054
42
-0.29821662669831095
10
198.17871395512253
20
48.525483999999672
42
0.29821662669864329
0
LWPOLYLINE
5
110
100
AcDbEntity
8
0
100
AcDbPolyline
90
21
70
1
43
0.0
10
233.64373293052299
20
50.250484000000036
10
229.20398199999997
20
50.250484000000057
42
-0.41421356237309503
10
228.828982
20
50.625484000000036
10
228.82898199999997
20
51.695484000000036
10
227.19398211919997
20
51.695484000000036
42
-0.41421356237309503
10
226.99398211919998
20
51.895484000000032
10
226.99398211919996
20
53.595484000000027
42
-0.41421356237309503
10
227.19398211919997
20
53.795484000000059
10
228.82898199999997
20
53.795484000000037
10
228.82898199999997
20
54.500484000000036
10
236.95398200000002
20
54.500484000000036
42
-0.41421356237309503
10
240.07898200000002
20
51.375484000000036
10
240.07898200000002
20
51.115484000000038
10
241.71398188080002
20
51.115484000000038
42
-0.41421356237319906
10
241.91398188080007
20
50.915484000000042
10
241.91398188080004
20
49.215484000000032
42
-0.41421356237319906
10
241.71398188080002
20
49.015484000000072
10
240.07898200000002
20
49.015484000000036
10
240.07898200000002
20
48.300484000000033
10
236.62240713224404
20
48.300484000000054
42
-0.29821662669831095
10
236.2787139551225
20
48.525483999999672
42
0.29821662669864835
0
LWPOLYLINE
5
111
100
AcDbEntity
8
0
100
AcDbPolyline
90
21
70
1
43
0.0
10
119.34373293052296
20
50.250484000000036
10
114.90398199999994
20
50.250484000000036
42
-0.41421356237309503
10
114.52898199999994
20
50.625484000000036
10
114.52898199999993
20
51.695484000000036
10
112.89398211919995
20
51.695484000000036
42
-0.41421356237309503
10
112.69398211919994
20
51.895484000000032
10
112.69398211919992
20
53.595484000000027
42
-0.41421356237309503
10
112.89398211919995
20
53.795484000000059
10
114.52898199999993
20
53.795484000000037
10
114.52898199999993
20
54.500484000000036
10
122.653982
20
54.500484000000036
42
-0.41421356237309503
10
125.778982
20
51.375484000000036
10
125.778982
20
51.115484000000038
10
127.41398188079998
20
51.115484000000038
42
-0.41421356237319906
10
127.61398188080005
20
50.915484000000042
10
127.61398188080001
20
49.215484000000032
42
-0.41421356237319906
10
127.41398188079998
20
49.015484000000072
10
125.778982
20
49.015484000000036
10
125.778982
20
48.300484000000033
10
122.322407132244
20
48.30048400000004
42
-0.29821662669832794
10
121.97871395512246
20
48.525483999999686
42
0.29821662669864613
0
LWPOLYLINE
5
112
100
AcDbEntity
8
0
100
AcDbPolyline
90
21
70
1
43
0.0
10
209.79373293052299
20
31.200484000000035
10
205.35398199999997
20
31.200484000000017
42
-0.41421356237309503
10
204.97898199999995
20
31.575484000000031
10
204.97898199999995
20
32.645484000000032
10
203.34398211919995
20
32.645484000000039
42
-0.41421356237309503
10
203.14398211919996
20
32.845484000000035
10
203.14398211919993
20
34.54548400000003
42
-0.41421356237309503
10
203.34398211919995
20
34.745484000000062
10
204.97898199999995
20
34.745484000000033
10
204.97898199999995
20
35.450484000000031
10
213.10398200000003
20
35.450484000000031
42
-0.41421356237309503
10
216.22898200000003
20
32.325484000000031
10
216.22898200000003
20
32.065484000000033
10
217.8639818808
20
32.065484000000033
42
-0.41421356237319906
10
218.06398188080007
20
31.865484000000034
10
218.06398188080004
20
30.165484000000031
42
-0.41421356237319906
10
217.8639818808
20
29.965484000000071
10
216.22898200000003
20
29.965484000000036
10
216.22898200000003
20
29.250484000000032
10
212.77240713224401
20
29.250484000000018
42
-0.29821662669833898
10
212.42871395512248
20
29.475483999999689
42
0.29821662669864385
0
LWPOLYLINE
5
113
100
AcDbEntity
8
0
100
AcDbPolyline
90
4
70
1
43
0.0
10
223.38306414525104
20
44.968957854749014
10
221.70252385474907
20
44.968957854749014
10
221.70252385474907
20
47.899498145251016
10
223.38306414525104
20
47.899498145251016
0
LWPOLYLINE
5
114
100
AcDbEntity
8
0
100
AcDbPolyline
90
4
70
1
43
0.0
10
185.28306414525105
20
44.968957854749014
10
183.60252385474908
20
44.968957854749014
10
183.60252385474908
20
47.899498145251016
10
185.28306414525105
20
47.899498145251016
0
LWPOLYLINE
5
115
100
AcDbEntity
8
0
100
AcDbPolyline
90
21
70
1
43
0.0
10
247.89373293052302
20
31.200484000000035
10
243.453982
20
31.200484000000017
42
-0.41421356237309503
10
243.07898199999997
20
31.575484000000031
10
243.07898199999997
20
32.645484000000032
10
241.44398211919997
20
32.645484000000039
42
-0.41421356237309503
10
241.24398211919998
20
32.845484000000035
10
241.24398211919996
20
34.54548400000003
42
-0.41421356237309503
10
241.44398211919997
20
34.745484000000062
10
243.07898199999997
20
34.745484000000033
10
243.07898199999997
20
35.450484000000031
10
251.20398200000005
20
35.450484000000031
42
-0.41421356237309503
10
254.32898200000005
20
32.325484000000031
10
254.32898200000005
20
32.065484000000033
10
255.96398188080002
20
32.065484000000033
42
-0.41421356237319906
10
256.16398188080007
20
31.865484000000034
10
256.16398188080007
20
30.165484000000031
42
-0.41421356237319906
10
255.96398188080002
20
29.965484000000071
10
254.32898200000005
20
29.965484000000036
10
254.32898200000005
20
29.250484000000032
10
250.87240713224404
20
29.250484000000018
42
-0.29821662669833898
10
250.5287139551225
20
29.475483999999689
42
0.29821662669864385
0
LWPOLYLINE
5
116
100
AcDbEntity
8
0
100
AcDbPolyline
90
4
70
1
43
0.0
10
216.90252385474906
20
25.91895785474901
10
216.90252385474906
20
28.849498145251012
10
218.58306414525103
20
28.849498145251012
10
218.58306414525103
20
25.91895785474901
0
LWPOLYLINE
5
117
100
AcDbEntity
8
0
100
AcDbPolyline
90
4
70
1
43
0.0
10
166.23306414525103
20
47.899498145251016
10
166.23306414525103
20
44.968957854749014
10
164.55252385474907
20
44.968957854749014
10
164.55252385474907
20
47.899498145251016
0
LWPOLYLINE
5
118
100
AcDbEntity
8
0
100
AcDbPolyline
90
4
70
1
43
0.0
10
202.65252385474909
20
47.899498145251016
10
204.33306414525106
20
47.899498145251016
10
204.33306414525106
20
44.968957854749014
10
202.65252385474909
20
44.968957854749014
0
LWPOLYLINE
5
119
100
AcDbEntity
8
0
100
AcDbPolyline
90
21
70
1
43
0.0
10
228.843732930523
20
31.200484000000035
10
224.40398199999998
20
31.200484000000017
42
-0.41421356237309503
10
224.02898199999996
20
31.575484000000031
10
224.02898199999996
20
32.645484000000032
10
222.39398211919996
20
32.645484000000039
42
-0.41421356237309503
10
222.19398211919997
20
32.845484000000035
10
222.19398211919994
20
34.54548400000003
42
-0.41421356237309503
10
222.39398211919996
20
34.745484000000062
10
224.02898199999996
20
34.745484000000033
10
224.02898199999996
20
35.450484000000031
10
232.15398200000004
20
35.450484000000031
42
-0.41421356237309503
10
235.27898200000004
20
32.325484000000031
10
235.27898200000004
20
32.065484000000033
10
236.91398188080001
20
32.065484000000033
42
-0.41421356237319906
10
237.11398188080008
20
31.865484000000034
10
237.11398188080005
20
30.165484000000031
42
-0.41421356237319906
10
236.91398188080001
20
29.965484000000071
10
235.27898200000004
20
29.965484000000036
10
235.27898200000004
20
29.250484000000032
10
231.82240713224402
20
29.250484000000018
42
-0.29821662669833604
10
231.47871395512249
20
29.475483999999685
42
0.29821662669863958
0
LWPOLYLINE
5
120
100
AcDbEntity
8
0
100
AcDbPolyline
90
4
70
1
43
0.0
10
237.63306414525104
20
28.849498145251012
10
237.63306414525104
20
25.91895785474901
10
235.95252385474907
20
25.91895785474901
10
235.95252385474907
20
28.849498145251012
0
LWPOLYLINE
5
121
100
AcDbEntity
8
0
100
AcDbPolyline
90
21
70
1
43
0.0
10
295.4700302236605
20
88.340105654900171
10
291.03027929313748
20
88.340105654900185
42
-0.41421356237309503
10
290.65527929313754
20
88.715105654900157
10
290.65527929313748
20
89.78510565490015
10
289.02027941233752
20
89.785105654900178
42
-0.41421356237309503
10
288.82027941233753
20
89.985105654900167
10
288.82027941233747
20
91.68510565490017
42
-0.41421356237309503
10
289.02027941233752
20
91.885105654900201
10
290.65527929313748
20
91.885105654900173
10
290.65527929313748
20
92.590105654900157
10
298.78027929313754
20
92.590105654900157
42
-0.41421356237309503
10
301.90527929313754
20
89.465105654900157
10
301.90527929313754
20
89.205105654900166
10
303.54027917393756
20
89.205105654900166
42
-0.41421356237319906
10
303.74027917393761
20
89.005105654900163
10
303.74027917393755
20
87.30510565490016
42
-0.41421356237319906
10
303.54027917393756
20
87.1051056549002
10
301.90527929313754
20
87.105105654900171
10
301.90527929313754
20
86.390105654900168
10
298.44870442538155
20
86.39010565490014
42
-0.29821662669833898
10
298.10501124825998
20
86.615105654899821
42
0.29821662669864829
0
LWPOLYLINE
5
122
100
AcDbEntity
8
0
100
AcDbPolyline
90
21
70
1
43
0.0
10
238.37003022366051
20
88.340105654900171
10
233.93027929313749
20
88.340105654900185
42
-0.41421356237309503
10
233.55527929313752
20
88.715105654900157
10
233.55527929313749
20
89.78510565490015
10
231.92027941233749
20
89.785105654900178
42
-0.41421356237309503
10
231.7202794123375
20
89.985105654900167
10
231.72027941233748
20
91.68510565490017
42
-0.41421356237309503
10
231.92027941233749
20
91.885105654900201
10
233.55527929313749
20
91.885105654900173
10
233.55527929313749
20
92.590105654900157
10
241.68027929313754
20
92.590105654900157
42
-0.41421356237309503
10
244.80527929313754
20
89.465105654900157
10
244.80527929313754
20
89.205105654900166
10
246.44027917393754
20
89.205105654900166
42
-0.41421356237319906
10
246.64027917393759
20
89.005105654900163
10
246.64027917393756
20
87.30510565490016
42
-0.41421356237319906
10
246.44027917393754
20
87.1051056549002
10
244.80527929313754
20
87.105105654900171
10
244.80527929313754
20
86.390105654900168
10
241.34870442538156
20
86.39010565490014
42
-0.29821662669833898
10
241.00501124825999
20
86.615105654899821
42
0.29821662669864829
0
LWPOLYLINE
5
123
100
AcDbEntity
8
0
100
AcDbPolyline
90
4
70
1
43
0.0
10
245.47882114788661
20
85.989119800151144
10
247.15936143838857
20
85.989119800151144
10
247.15936143838857
20
83.058579509649149
10
245.47882114788661
20
83.058579509649149
0
LWPOLYLINE
5
124
100
AcDbEntity
8
0
100
AcDbPolyline
90
21
70
1
43
0.0
10
257.4700302236605
20
88.340105654900171
10
253.03027929313748
20
88.340105654900157
42
-0.41421356237309503
10
252.65527929313748
20
88.715105654900157
10
252.65527929313748
20
89.78510565490015
10
251.02027941233752
20
89.785105654900136
42
-0.41421356237309503
10
250.82027941233747
20
89.985105654900167
10
250.82027941233747
20
91.68510565490017
42
-0.41421356237309503
10
251.02027941233752
20
91.885105654900201
10
252.65527929313748
20
91.885105654900173
10
252.65527929313748
20
92.590105654900157
10
260.78027929313754
20
92.590105654900157
42
-0.41421356237309503
10
263.90527929313754
20
89.465105654900157
10
263.90527929313754
20
89.205105654900166
10
265.54027917393751
20
89.205105654900166
42
-0.41421356237319906
10
265.74027917393761
20
89.005105654900163
10
265.74027917393755
20
87.30510565490016
42
-0.41421356237319906
10
265.54027917393751
20
87.1051056549002
10
263.90527929313754
20
87.105105654900171
10
263.90527929313754
20
86.390105654900168
10
260.44870442538155
20
86.39010565490014
42
-0.29821662669833898
10
260.10501124825998
20
86.615105654899821
42
0.29821662669864119
0
LWPOLYLINE
5
125
100
AcDbEntity
8
0
100
AcDbPolyline
90
4
70
1
43
0.0
10
90.033064145250989
20
47.899498145251016
10
90.033064145250989
20
44.968957854749014
10
88.352523854749023
20
44.968957854749014
10
88.352523854749023
20
47.899498145251016
0
LWPOLYLINE
5
126
100
AcDbEntity
8
0
100
AcDbPolyline
90
21
70
1
43
0.0
10
81.243732930522938
20
50.250484000000036
10
76.803981999999934
20
50.250484000000036
42
-0.41421356237309503
10
76.428981999999934
20
50.625484000000036
10
76.42898199999992
20
51.695484000000036
10
74.793982119199939
20
51.695484000000036
42
-0.41421356237309503
10
74.593982119199936
20
51.895484000000032
10
74.593982119199907
20
53.595484000000027
42
-0.41421356237309503
10
74.793982119199939
20
53.795484000000059
10
76.42898199999992
20
53.795484000000037
10
76.42898199999992
20
54.500484000000036
10
84.553981999999976
20
54.500484000000036
42
-0.41421356237309503
10
87.678981999999976
20
51.375484000000036
10
87.678981999999976
20
51.115484000000038
10
89.313981880799957
20
51.115484000000038
42
-0.41421356237319906
10
89.513981880800031
20
50.915484000000042
10
89.513981880799989
20
49.215484000000032
42
-0.41421356237319906
10
89.313981880799957
20
49.015484000000072
10
87.678981999999976
20
49.015484000000036
10
87.678981999999976
20
48.300484000000033
10
84.222407132243973
20
48.300484000000033
42
-0.298216626698322
10
83.878713955122436
20
48.525483999999679
42
0.29821662669865762
0
LWPOLYLINE
5
127
100
AcDbEntity
8
0
100
AcDbPolyline
90
4
70
1
43
0.0
10
109.083064145251
20
47.899498145251016
10
109.083064145251
20
44.968957854749014
10
107.40252385474903
20
44.968957854749014
10
107.40252385474903
20
47.899498145251016
0
LWPOLYLINE
5
128
100
AcDbEntity
8
0
100
AcDbPolyline
90
4
70
1
43
0.0
10
69.302523854749026
20
44.968957854749014
10
69.302523854749026
20
47.899498145251016
10
70.983064145250992
20
47.899498145251016
10
70.983064145250992
20
44.968957854749014
0
LWPOLYLINE
5
129
100
AcDbEntity
8
0
100
AcDbPolyline
90
4
70
1
43
0.0
10
50.252523854749029
20
47.899498145251016
10
51.933064145250995
20
47.899498145251016
10
51.933064145250995
20
44.968957854749014
10
50.252523854749029
20
44.968957854749014
0
LWPOLYLINE
5
130
100
AcDbEntity
8
0
100
AcDbPolyline
90
21
70
1
43
0.0
10
100.29373293052295
20
50.250484000000036
10
95.853981999999931
20
50.250484000000036
42
-0.41421356237309503
10
95.478981999999931
20
50.625484000000036
10
95.478981999999917
20
51.695484000000036
10
93.843982119199936
20
51.695484000000036
42
-0.41421356237309503
10
93.643982119199933
20
51.895484000000032
10
93.643982119199904
20
53.595484000000027
42
-0.41421356237309503
10
93.843982119199936
20
53.795484000000059
10
95.478981999999917
20
53.795484000000037
10
95.478981999999917
20
54.500484000000036
10
103.60398199999999
20
54.500484000000036
42
-0.41421356237309503
10
106.72898199999999
20
51.375484000000036
10
106.72898199999999
20
51.115484000000038
10
108.36398188079997
20
51.115484000000038
42
-0.41421356237319906
10
108.56398188080004
20
50.915484000000042
10
108.5639818808
20
49.215484000000032
42
-0.41421356237319906
10
108.36398188079997
20
49.015484000000072
10
106.72898199999999
20
49.015484000000036
10
106.72898199999999
20
48.300484000000033
10
103.27240713224398
20
48.300484000000033
42
-0.298216626698322
10
102.92871395512245
20
48.525483999999679
42
0.29821662669865762
0
LWPOLYLINE
5
131
100
AcDbEntity
8
0
100
AcDbPolyline
90
21
70
1
43
0.0
10
138.39373293052296
20
50.250484000000036
10
133.95398199999994
20
50.250484000000036
42
-0.41421356237309503
10
133.57898199999997
20
50.625484000000036
10
133.57898199999994
20
51.695484000000036
10
131.94398211919997
20
51.695484000000036
42
-0.41421356237309503
10
131.74398211919996
20
51.895484000000032
10
131.74398211919993
20
53.595484000000027
42
-0.41421356237309503
10
131.94398211919997
20
53.795484000000059
10
133.57898199999994
20
53.795484000000037
10
133.57898199999994
20
54.500484000000036
10
141.703982
20
54.500484000000036
42
-0.41421356237309503
10
144.828982
20
51.375484000000036
10
144.828982
20
51.115484000000038
10
146.46398188079999
20
51.115484000000038
42
-0.41421356237319906
10
146.66398188080007
20
50.915484000000042
10
146.66398188080001
20
49.215484000000032
42
-0.41421356237319906
10
146.46398188079999
20
49.015484000000072
10
144.828982
20
49.015484000000036
10
144.828982
20
48.300484000000033
10
141.37240713224401
20
48.30048400000004
42
-0.29821662669832794
10
141.02871395512247
20
48.525483999999686
42
0.29821662669864613
0
LWPOLYLINE
5
132
100
AcDbEntity
8
0
100
AcDbPolyline
90
21
70
1
43
0.0
10
62.193732930522941
20
50.250484000000036
10
57.753981999999922
20
50.250484000000036
42
-0.41421356237309503
10
57.37898199999993
20
50.625484000000036
10
57.378981999999908
20
51.695484000000036
10
55.743982119199927
20
51.695484000000036
42
-0.41421356237309503
10
55.543982119199939
20
51.895484000000032
10
55.543982119199896
20
53.595484000000027
42
-0.41421356237309503
10
55.743982119199927
20
53.795484000000059
10
57.378981999999908
20
53.795484000000037
10
57.378981999999908
20
54.500484000000036
10
65.503981999999979
20
54.500484000000036
42
-0.41421356237309503
10
68.628981999999979
20
51.375484000000036
10
68.628981999999979
20
51.115484000000038
10
70.26398188079996
20
51.115484000000038
42
-0.41421356237319906
10
70.463981880800034
20
50.915484000000042
10
70.463981880799992
20
49.215484000000032
42
-0.41421356237319906
10
70.26398188079996
20
49.015484000000072
10
68.628981999999979
20
49.015484000000036
10
68.628981999999979
20
48.300484000000033
10
65.172407132243976
20
48.300484000000033
42
-0.298216626698322
10
64.828713955122453
20
48.525483999999679
42
0.2982166266986449
0
LWPOLYLINE
5
133
100
AcDbEntity
8
0
100
AcDbPolyline
90
4
70
1
43
0.0
10
126.45252385474905
20
44.968957854749014
10
126.45252385474905
20
47.899498145251016
10
128.13306414525101
20
47.899498145251016
10
128.13306414525101
20
44.968957854749014
0
LWPOLYLINE
5
134
100
AcDbEntity
8
0
100
AcDbPolyline
90
21
70
1
43
0.0
10
157.44373293052297
20
50.250484000000036
10
153.00398199999995
20
50.250484000000036
42
-0.41421356237309503
10
152.62898199999998
20
50.625484000000036
10
152.62898199999995
20
51.695484000000036
10
150.99398211919998
20
51.695484000000036
42
-0.41421356237309503
10
150.79398211919997
20
51.895484000000032
10
150.79398211919994
20
53.595484000000027
42
-0.41421356237309503
10
150.99398211919998
20
53.795484000000059
10
152.62898199999995
20
53.795484000000037
10
152.62898199999995
20
54.500484000000036
10
160.75398200000001
20
54.500484000000036
42
-0.41421356237309503
10
163.87898200000001
20
51.375484000000036
10
163.87898200000001
20
51.115484000000038
10
165.5139818808
20
51.115484000000038
42
-0.41421356237319906
10
165.71398188080008
20
50.915484000000042
10
165.71398188080002
20
49.215484000000032
42
-0.41421356237319906
10
165.5139818808
20
49.015484000000072
10
163.87898200000001
20
49.015484000000036
10
163.87898200000001
20
48.300484000000033
10
160.42240713224402
20
48.300484000000026
42
-0.29821662669833304
10
160.07871395512245
20
48.525483999999686
42
0.29821662669865445
0
LWPOLYLINE
5
135
100
AcDbEntity
8
0
100
AcDbPolyline
90
21
70
1
43
0.0
10
214.59373293052298
20
50.250484000000036
10
210.15398199999996
20
50.250484000000057
42
-0.41421356237309503
10
209.77898199999998
20
50.625484000000036
10
209.77898199999996
20
51.695484000000036
10
208.14398211919996
20
51.695484000000036
42
-0.41421356237309503
10
207.94398211919997
20
51.895484000000032
10
207.94398211919994
20
53.595484000000027
42
-0.41421356237309503
10
208.14398211919996
20
53.795484000000059
10
209.77898199999996
20
53.795484000000037
10
209.77898199999996
20
54.500484000000036
10
217.90398200000001
20
54.500484000000036
42
-0.41421356237309503
10
221.02898200000001
20
51.375484000000036
10
221.02898200000001
20
51.115484000000038
10
222.66398188080001
20
51.115484000000038
42
-0.41421356237319906
10
222.86398188080005
20
50.915484000000042
10
222.86398188080003
20
49.215484000000032
42
-0.41421356237319906
10
222.66398188080001
20
49.015484000000072
10
221.02898200000001
20
49.015484000000036
10
221.02898200000001
20
48.300484000000033
10
217.57240713224402
20
48.300484000000054
42
-0.29821662669831095
10
217.22871395512249
20
48.525483999999672
42
0.29821662669864835
0
LWPOLYLINE
5
136
100
AcDbEntity
8
0
100
AcDbPolyline
90
4
70
1
43
0.0
10
145.50252385474906
20
47.899498145251016
10
147.18306414525102
20
47.899498145251016
10
147.18306414525102
20
44.968957854749014
10
145.50252385474906
20
44.968957854749014
0
LWPOLYLINE
5
137
100
AcDbEntity
8
0
100
AcDbPolyline
90
4
70
1
43
0.0
10
242.43306414525105
20
44.968957854749014
10
240.75252385474909
20
44.968957854749014
10
240.75252385474909
20
47.899498145251016
10
242.43306414525105
20
47.899498145251016
0
LWPOLYLINE
5
138
100
AcDbEntity
8
0
100
AcDbPolyline
90
4
70
1
43
0.0
10
207.37882114788661
20
85.989119800151144
10
209.05936143838858
20
85.989119800151144
10
209.05936143838858
20
83.058579509649149
10
207.37882114788661
20
83.058579509649149
0
LWPOLYLINE
5
139
100
AcDbEntity
8
0
100
AcDbPolyline
90
4
70
1
43
0.0
10
228.15936143838857
20
85.989119800151144
10
228.15936143838857
20
83.058579509649149
10
226.47882114788661
20
83.058579509649149
10
226.47882114788661
20
85.989119800151144
0
LWPOLYLINE
5
140
100
AcDbEntity
8
0
100
AcDbPolyline
90
21
70
1
43
0.0
10
219.37003022366054
20
88.340105654900171
10
214.93027929313752
20
88.340105654900185
42
-0.41421356237309503
10
214.55527929313752
20
88.715105654900157
10
214.55527929313749
20
89.78510565490015
10
212.92027941233752
20
89.785105654900178
42
-0.41421356237309503
10
212.7202794123375
20
89.985105654900167
10
212.72027941233748
20
91.68510565490017
42
-0.41421356237309503
10
212.92027941233752
20
91.885105654900201
10
214.55527929313749
20
91.885105654900173
10
214.55527929313749
20
92.590105654900157
10
222.68027929313757
20
92.590105654900157
42
-0.41421356237309503
10
225.80527929313757
20
89.465105654900157
10
225.80527929313757
20
89.205105654900166
10
227.44027917393754
20
89.205105654900166
42
-0.41421356237319906
10
227.64027917393761
20
89.005105654900163
10
227.64027917393759
20
87.30510565490016
42
-0.41421356237319906
10
227.44027917393754
20
87.1051056549002
10
225.80527929313757
20
87.105105654900171
10
225.80527929313757
20
86.390105654900168
10
222.34870442538156
20
86.39010565490014
42
-0.29821662669833898
10
222.00501124826002
20
86.615105654899821
42
0.29821662669864829
0
LWPOLYLINE
5
141
100
AcDbEntity
8
0
100
AcDbPolyline
90
4
70
1
43
0.0
10
19.252523854749008
20
83.068957854749016
10
19.252523854749008
20
85.999498145251025
10
20.933064145250974
20
85.999498145251025
10
20.933064145250974
20
83.068957854749016
0
LWPOLYLINE
5
142
100
AcDbEntity
8
0
100
AcDbPolyline
90
21
70
1
43
0.0
10
35.943732930522934
20
88.350484000000051
10
31.503981999999912
20
88.350484000000051
42
-0.41421356237309503
10
31.128981999999933
20
88.725484000000023
10
31.128981999999898
20
89.795484000000044
10
29.493982119199917
20
89.795484000000044
42
-0.41421356237309503
10
29.293982119199921
20
89.995484000000033
10
29.293982119199885
20
91.695484000000036
42
-0.41421356237309503
10
29.493982119199917
20
91.895484000000067
10
31.128981999999898
20
91.895484000000039
10
31.128981999999898
20
92.600484000000037
10
39.253981999999972
20
92.600484000000037
42
-0.41421356237309503
10
42.378981999999965
20
89.475484000000037
10
42.378981999999965
20
89.215484000000046
10
44.013981880799946
20
89.215484000000046
42
-0.41421356237319906
10
44.213981880800013
20
89.015484000000043
10
44.213981880799977
20
87.315484000000055
42
-0.41421356237319906
10
44.013981880799946
20
87.115484000000095
10
42.378981999999965
20
87.115484000000052
10
42.378981999999965
20
86.400484000000048
10
38.922407132243968
20
86.400484000000048
42
-0.29821662669832072
10
38.578713955122439
20
86.625483999999688
42
0.29821662669865145
0
LWPOLYLINE
5
143
100
AcDbEntity
8
0
100
AcDbPolyline
90
4
70
1
43
0.0
10
68.583064145250987
20
85.999498145251025
10
68.583064145250987
20
83.068957854749016
10
66.90252385474902
20
83.068957854749016
10
66.90252385474902
20
85.999498145251025
0
LWPOLYLINE
5
144
100
AcDbEntity
8
0
100
AcDbPolyline
90
21
70
1
43
0.0
10
16.893732930522944
20
50.250484000000036
10
12.453981999999924
20
50.250484000000036
42
-0.41421356237309503
10
12.078981999999927
20
50.625484000000036
10
12.078981999999909
20
51.695484000000036
10
10.443982119199928
20
51.695484000000036
42
-0.41421356237309503
10
10.243982119199933
20
51.895484000000032
10
10.243982119199897
20
53.595484000000027
42
-0.41421356237309503
10
10.443982119199928
20
53.795484000000059
10
12.078981999999909
20
53.795484000000037
10
12.078981999999909
20
54.500484000000036
10
20.203981999999982
20
54.500484000000036
42
-0.41421356237309503
10
23.328981999999982
20
51.375484000000036
10
23.328981999999982
20
51.115484000000038
10
24.963981880799963
20
51.115484000000038
42
-0.41421356237319906
10
25.16398188080003
20
50.915484000000042
10
25.163981880799994
20
49.215484000000032
42
-0.41421356237319906
10
24.963981880799963
20
49.015484000000072
10
23.328981999999982
20
49.015484000000036
10
23.328981999999982
20
48.300484000000033
10
19.872407132243978
20
48.300484000000033
42
-0.29821662669832982
10
19.528713955122438
20
48.525483999999686
42
0.29821662669864574
0
LWPOLYLINE
5
145
100
AcDbEntity
8
0
100
AcDbPolyline
90
4
70
1
43
0.0
10
43.052523854749012
20
83.068957854749016
10
43.052523854749012
20
85.999498145251025
10
44.733064145250978
20
85.999498145251025
10
44.733064145250978
20
83.068957854749016
0
LWPOLYLINE
5
146
100
AcDbEntity
8
0
100
AcDbPolyline
90
21
70
1
43
0.0
10
59.793732930522935
20
88.350484000000051
10
55.353981999999917
20
88.350484000000051
42
-0.41421356237309503
10
54.978981999999938
20
88.725484000000023
10
54.978981999999903
20
89.795484000000044
10
53.343982119199921
20
89.795484000000044
42
-0.41421356237309503
10
53.143982119199926
20
89.995484000000033
10
53.14398211919989
20
91.695484000000036
42
-0.41421356237309503
10
53.343982119199921
20
91.895484000000067
10
54.978981999999903
20
91.895484000000039
10
54.978981999999903
20
92.600484000000037
10
63.103981999999974
20
92.600484000000037
42
-0.41421356237309503
10
66.228981999999974
20
89.475484000000037
10
66.228981999999974
20
89.215484000000046
10
67.863981880799955
20
89.215484000000046
42
-0.41421356237319906
10
68.063981880800014
20
89.015484000000043
10
68.063981880799986
20
87.315484000000055
42
-0.41421356237319906
10
67.863981880799955
20
87.115484000000095
10
66.228981999999974
20
87.115484000000052
10
66.228981999999974
20
86.400484000000048
10
62.77240713224397
20
86.400484000000048
42
-0.29821662669833388
10
62.428713955122433
20
86.625483999999702
42
0.2982166266986459
0
LWPOLYLINE
5
147
100
AcDbEntity
8
0
100
AcDbPolyline
90
21
70
1
43
0.0
10
12.143732930522928
20
88.350484000000051
10
7.7039819999999093
20
88.350484000000051
42
-0.41421356237309503
10
7.3289819999999306
20
88.725484000000023
10
7.3289819999998951
20
89.795484000000044
10
5.693982119199914
20
89.795484000000044
42
-0.41421356237309503
10
5.4939821191999183
20
89.995484000000033
10
5.4939821191998828
20
91.695484000000036
42
-0.41421356237309503
10
5.693982119199914
20
91.895484000000067
10
7.3289819999998951
20
91.895484000000039
10
7.3289819999998951
20
92.600484000000037
10
15.453981999999966
20
92.600484000000037
42
-0.41421356237309503
10
18.578981999999968
20
89.475484000000037
10
18.578981999999961
20
89.215484000000046
10
20.213981880799942
20
89.215484000000046
42
-0.41421356237319906
10
20.413981880800009
20
89.015484000000043
10
20.413981880799973
20
87.315484000000055
42
-0.41421356237319906
10
20.213981880799942
20
87.115484000000095
10
18.578981999999961
20
87.115484000000052
10
18.578981999999961
20
86.400484000000048
10
15.122407132243962
20
86.400484000000048
42
-0.29821662669832005
10
14.778713955122436
20
86.625483999999688
42
0.29821662669864313
0
LWPOLYLINE
5
148
100
AcDbEntity
8
0
100
AcDbPolyline
90
4
70
1
43
0.0
10
25.683064145250995
20
47.899498145251016
10
25.683064145250995
20
44.968957854749014
10
24.002523854749029
20
44.968957854749014
10
24.002523854749029
20
47.899498145251016
0
LWPOLYLINE
5
149
100
AcDbEntity
8
0
100
AcDbPolyline
90
21
70
1
43
0.0
10
166.94373293052297
20
69.30048400000004
10
162.50398199999995
20
69.300484000000054
42
-0.41421356237309503
10
162.12898199999998
20
69.67548400000004
10
162.12898199999995
20
70.745484000000033
10
160.49398211919996
20
70.745484000000033
42
-0.41421356237309503
10
160.29398211919997
20
70.945484000000036
10
160.29398211919994
20
72.645484000000039
42
-0.41421356237309503
10
160.49398211919996
20
72.84548400000007
10
162.12898199999995
20
72.845484000000042
10
162.12898199999995
20
73.55048400000004
10
170.25398200000001
20
73.55048400000004
42
-0.41421356237309503
10
173.37898200000001
20
70.42548400000004
10
173.37898200000001
20
70.165484000000035
10
175.0139818808
20
70.165484000000035
42
-0.41421356237319906
10
175.21398188080008
20
69.965484000000046
10
175.21398188080002
20
68.265484000000043
42
-0.41421356237319906
10
175.0139818808
20
68.065484000000083
10
173.37898200000001
20
68.065484000000041
10
173.37898200000001
20
67.350484000000037
10
169.92240713224402
20
67.350484000000023
42
-0.29821662669833304
10
169.57871395512245
20
67.57548399999969
42
0.29821662669865012
0
LWPOLYLINE
5
150
100
AcDbEntity
8
0
100
AcDbPolyline
90
4
70
1
43
0.0
10
232.88306414525101
20
66.949498145251013
10
232.88306414525101
20
64.018957854749019
10
231.20252385474907
20
64.018957854749019
10
231.20252385474907
20
66.949498145251013
0
LWPOLYLINE
5
151
100
AcDbEntity
8
0
100
AcDbPolyline
90
21
70
1
43
0.0
10
71.693732930522941
20
69.30048400000004
10
67.253981999999922
20
69.30048400000004
42
-0.41421356237309503
10
66.878981999999922
20
69.67548400000004
10
66.878981999999908
20
70.745484000000033
10
65.243982119199927
20
70.745484000000033
42
-0.41421356237309503
10
65.043982119199924
20
70.945484000000036
10
65.043982119199896
20
72.645484000000039
42
-0.41421356237309503
10
65.243982119199927
20
72.84548400000007
10
66.878981999999908
20
72.845484000000042
10
66.878981999999908
20
73.55048400000004
10
75.003981999999979
20
73.55048400000004
42
-0.41421356237309503
10
78.128981999999979
20
70.42548400000004
10
78.128981999999979
20
70.165484000000035
10
79.76398188079996
20
70.165484000000035
42
-0.41421356237319906
10
79.96398188080002
20
69.965484000000046
10
79.963981880799992
20
68.265484000000043
42
-0.41421356237319906
10
79.76398188079996
20
68.065484000000083
10
78.128981999999979
20
68.065484000000041
10
78.128981999999979
20
67.350484000000037
10
74.672407132243976
20
67.350484000000037
42
-0.298216626698322
10
74.328713955122439
20
67.575483999999676
42
0.29821662669864285
0
LWPOLYLINE
5
152
100
AcDbEntity
8
0
100
AcDbPolyline
90
21
70
1
43
0.0
10
224.09373293052298
20
69.30048400000004
10
219.65398199999996
20
69.300484000000026
42
-0.41421356237309503
10
219.27898199999993
20
69.67548400000004
10
219.27898199999993
20
70.745484000000033
10
217.64398211919996
20
70.745484000000033
42
-0.41421356237309503
10
217.44398211919997
20
70.945484000000036
10
217.44398211919992
20
72.645484000000039
42
-0.41421356237309503
10
217.64398211919996
20
72.84548400000007
10
219.27898199999993
20
72.845484000000042
10
219.27898199999993
20
73.55048400000004
10
227.40398200000001
20
73.55048400000004
42
-0.41421356237309503
10
230.52898200000001
20
70.42548400000004
10
230.52898200000001
20
70.165484000000035
10
232.16398188080001
20
70.165484000000035
42
-0.41421356237319906
10
232.36398188080005
20
69.965484000000046
10
232.36398188080003
20
68.265484000000043
42
-0.41421356237319906
10
232.16398188080001
20
68.065484000000083
10
230.52898200000001
20
68.065484000000041
10
230.52898200000001
20
67.350484000000037
10
227.072407132244
20
67.350484000000023
42
-0.29821662669833304
10
226.72871395512246
20
67.57548399999969
42
0.29821662669864119
0
LWPOLYLINE
5
153
100
AcDbEntity
8
0
100
AcDbPolyline
90
21
70
1
43
0.0
10
109.79373293052294
20
69.30048400000004
10
105.35398199999992
20
69.30048400000004
42
-0.41421356237309503
10
104.97898199999993
20
69.67548400000004
10
104.97898199999992
20
70.745484000000033
10
103.34398211919992
20
70.745484000000033
42
-0.41421356237309503
10
103.14398211919993
20
70.945484000000036
10
103.1439821191999
20
72.645484000000039
42
-0.41421356237309503
10
103.34398211919992
20
72.84548400000007
10
104.97898199999992
20
72.845484000000042
10
104.97898199999992
20
73.55048400000004
10
113.10398199999997
20
73.55048400000004
42
-0.41421356237309503
10
116.22898199999997
20
70.42548400000004
10
116.22898199999997
20
70.165484000000035
10
117.86398188079997
20
70.165484000000035
42
-0.41421356237319906
10
118.06398188080003
20
69.965484000000046
10
118.06398188079999
20
68.265484000000043
42
-0.41421356237319906
10
117.86398188079997
20
68.065484000000083
10
116.22898199999997
20
68.065484000000041
10
116.22898199999997
20
67.350484000000037
10
112.77240713224398
20
67.350484000000051
42
-0.29821662669832794
10
112.42871395512245
20
67.57548399999969
42
0.29821662669864613
0
LWPOLYLINE
5
154
100
AcDbEntity
8
0
100
AcDbPolyline
90
21
70
1
43
0.0
10
250.29373293052299
20
69.30048400000004
10
245.85398199999997
20
69.300484000000054
42
-0.41421356237309503
10
245.47898199999997
20
69.67548400000004
10
245.47898199999995
20
70.745484000000033
10
243.84398211919998
20
70.745484000000033
42
-0.41421356237309503
10
243.64398211919996
20
70.945484000000036
10
243.64398211919993
20
72.645484000000039
42
-0.41421356237309503
10
243.84398211919998
20
72.84548400000007
10
245.47898199999995
20
72.845484000000042
10
245.47898199999995
20
73.55048400000004
10
253.60398200000003
20
73.55048400000004
42
-0.41421356237309503
10
256.72898200000003
20
70.42548400000004
10
256.72898200000003
20
70.165484000000035
10
258.3639818808
20
70.165484000000035
42
-0.41421356237319906
10
258.56398188080004
20
69.965484000000046
10
258.56398188080004
20
68.265484000000043
42
-0.41421356237319906
10
258.3639818808
20
68.065484000000083
10
256.72898200000003
20
68.065484000000041
10
256.72898200000003
20
67.350484000000037
10
253.27240713224401
20
67.350484000000023
42
-0.29821662669833304
10
252.92871395512248
20
67.57548399999969
42
0.29821662669865012
0
LWPOLYLINE
5
155
100
AcDbEntity
8
0
100
AcDbPolyline
90
21
70
1
43
0.0
10
205.04373293052299
20
69.30048400000004
10
200.60398199999997
20
69.300484000000054
42
-0.41421356237309503
10
200.228982
20
69.67548400000004
10
200.22898199999997
20
70.745484000000033
10
198.59398211919998
20
70.745484000000033
42
-0.41421356237309503
10
198.39398211919999
20
70.945484000000036
10
198.39398211919996
20
72.645484000000039
42
-0.41421356237309503
10
198.59398211919998
20
72.84548400000007
10
200.22898199999997
20
72.845484000000042
10
200.22898199999997
20
73.55048400000004
10
208.35398200000003
20
73.55048400000004
42
-0.41421356237309503
10
211.47898200000003
20
70.42548400000004
10
211.47898200000003
20
70.165484000000035
10
213.11398188080003
20
70.165484000000035
42
-0.41421356237319906
10
213.3139818808001
20
69.965484000000046
10
213.31398188080004
20
68.265484000000043
42
-0.41421356237319906
10
213.11398188080003
20
68.065484000000083
10
211.47898200000003
20
68.065484000000041
10
211.47898200000003
20
67.350484000000037
10
208.02240713224404
20
67.350484000000023
42
-0.29821662669833304
10
207.67871395512248
20
67.57548399999969
42
0.29821662669865012
0
LWPOLYLINE
5
156
100
AcDbEntity
8
0
100
AcDbPolyline
90
21
70
1
43
0.0
10
264.54373293052305
20
50.250484000000036
10
260.10398200000003
20
50.250484000000057
42
-0.41421356237309503
10
259.72898200000003
20
50.625484000000036
10
259.72898199999997
20
51.695484000000036
10
258.09398211920001
20
51.695484000000036
42
-0.41421356237309503
10
257.89398211920002
20
51.895484000000032
10
257.89398211919996
20
53.595484000000027
42
-0.41421356237309503
10
258.09398211920001
20
53.795484000000059
10
259.72898199999997
20
53.795484000000037
10
259.72898199999997
20
54.500484000000036
10
267.85398200000009
20
54.500484000000036
42
-0.41421356237309503
10
270.97898200000009
20
51.375484000000036
10
270.97898200000009
20
51.115484000000038
10
272.61398188080005
20
51.115484000000038
42
-0.41421356237319906
10
272.8139818808001
20
50.915484000000042
10
272.8139818808001
20
49.215484000000032
42
-0.41421356237319906
10
272.61398188080005
20
49.015484000000072
10
270.97898200000009
20
49.015484000000036
10
270.97898200000009
20
48.300484000000033
10
267.52240713224404
20
48.300484000000054
42
-0.29821662669831095
10
267.17871395512253
20
48.525483999999672
42
0.29821662669864835
0
LWPOLYLINE
5
157
100
AcDbEntity
8
0
100
AcDbPolyline
90
4
70
1
43
0.0
10
259.08306414525106
20
66.949498145251013
10
259.08306414525106
20
64.018957854749019
10
257.40252385474906
20
64.018957854749019
10
257.40252385474906
20
66.949498145251013
0
LWPOLYLINE
5
158
100
AcDbEntity
8
0
100
AcDbPolyline
90
21
70
1
43
0.0
10
52.643732930522937
20
69.30048400000004
10
48.203981999999918
20
69.30048400000004
42
-0.41421356237309503
10
47.828981999999918
20
69.67548400000004
10
47.828981999999904
20
70.745484000000033
10
46.193982119199923
20
70.745484000000033
42
-0.41421356237309503
10
45.993982119199927
20
70.945484000000036
10
45.993982119199892
20
72.645484000000039
42
-0.41421356237309503
10
46.193982119199923
20
72.84548400000007
10
47.828981999999904
20
72.845484000000042
10
47.828981999999904
20
73.55048400000004
10
55.953981999999975
20
73.55048400000004
42
-0.41421356237309503
10
59.078981999999975
20
70.42548400000004
10
59.078981999999975
20
70.165484000000035
10
60.713981880799956
20
70.165484000000035
42
-0.41421356237319906
10
60.913981880800023
20
69.965484000000046
10
60.913981880799987
20
68.265484000000043
42
-0.41421356237319906
10
60.713981880799956
20
68.065484000000083
10
59.078981999999975
20
68.065484000000041
10
59.078981999999975
20
67.350484000000037
10
55.622407132243971
20
67.350484000000037
42
-0.298216626698322
10
55.278713955122434
20
67.575483999999676
42
0.29821662669864285
0
LWPOLYLINE
5
159
100
AcDbEntity
8
0
100
AcDbPolyline
90
21
70
1
43
0.0
10
14.543732930522935
20
31.200484000000035
10
10.103981999999917
20
31.200484000000035
42
-0.41421356237309503
10
9.7289819999999203
20
31.575484000000031
10
9.7289819999999025
20
32.645484000000032
10
8.0939821191999215
20
32.645484000000032
42
-0.41421356237309503
10
7.8939821191999204
20
32.845484000000035
10
7.8939821191998893
20
34.54548400000003
42
-0.41421356237309503
10
8.0939821191999215
20
34.745484000000062
10
9.7289819999999025
20
34.745484000000033
10
9.7289819999999025
20
35.450484000000031
10
17.853981999999974
20
35.450484000000031
42
-0.41421356237309503
10
20.978981999999974
20
32.325484000000031
10
20.978981999999974
20
32.065484000000033
10
22.613981880799955
20
32.065484000000033
42
-0.41421356237319906
10
22.813981880800025
20
31.865484000000034
10
22.813981880799986
20
30.165484000000031
42
-0.41421356237319906
10
22.613981880799955
20
29.965484000000071
10
20.978981999999974
20
29.965484000000036
10
20.978981999999974
20
29.250484000000032
10
17.52240713224397
20
29.250484000000032
42
-0.29821662669832855
10
17.178713955122433
20
29.475483999999682
42
0.29821662669864696
0
LWPOLYLINE
5
160
100
AcDbEntity
8
0
100
AcDbPolyline
90
4
70
1
43
0.0
10
280.48306414525109
20
28.849498145251012
10
280.48306414525109
20
25.91895785474901
10
278.8025238547491
20
25.91895785474901
10
278.8025238547491
20
28.849498145251012
0
LWPOLYLINE
5
161
100
AcDbEntity
8
0
100
AcDbPolyline
90
21
70
1
43
0.0
10
271.69373293052303
20
31.200484000000035
10
267.25398200000001
20
31.200484000000017
42
-0.41421356237309503
10
266.87898200000001
20
31.575484000000031
10
266.87898200000001
20
32.645484000000032
10
265.24398211920004
20
32.645484000000039
42
-0.41421356237309503
10
265.0439821192
20
32.845484000000035
10
265.0439821192
20
34.54548400000003
42
-0.41421356237309503
10
265.24398211920004
20
34.745484000000062
10
266.87898200000001
20
34.745484000000033
10
266.87898200000001
20
35.450484000000031
10
275.00398200000006
20
35.450484000000031
42
-0.41421356237309503
10
278.12898200000006
20
32.325484000000031
10
278.12898200000006
20
32.065484000000033
10
279.76398188080003
20
32.065484000000033
42
-0.41421356237319906
10
279.96398188080013
20
31.865484000000034
10
279.96398188080008
20
30.165484000000031
42
-0.41421356237319906
10
279.76398188080003
20
29.965484000000071
10
278.12898200000006
20
29.965484000000036
10
278.12898200000006
20
29.250484000000032
10
274.67240713224408
20
29.250484000000018
42
-0.29821662669833898
10
274.32871395512251
20
29.475483999999689
42
0.29821662669864385
0
LWPOLYLINE
5
162
100
AcDbEntity
8
0
100
AcDbPolyline
90
4
70
1
43
0.0
10
99.533064145250989
20
66.949498145251013
10
99.533064145250989
20
64.018957854749019
10
97.852523854749023
20
64.018957854749019
10
97.852523854749023
20
66.949498145251013
0
LWPOLYLINE
5
163
100
AcDbEntity
8
0
100
AcDbPolyline
90
4
70
1
43
0.0
10
271.65252385474912
20
44.968957854749014
10
271.65252385474912
20
47.899498145251016
10
273.33306414525106
20
47.899498145251016
10
273.33306414525106
20
44.968957854749014
0
LWPOLYLINE
5
164
100
AcDbEntity
8
0
100
AcDbPolyline
90
21
70
1
43
0.0
10
128.84373293052295
20
69.30048400000004
10
124.40398199999993
20
69.30048400000004
42
-0.41421356237309503
10
124.02898199999994
20
69.67548400000004
10
124.02898199999993
20
70.745484000000033
10
122.39398211919993
20
70.745484000000033
42
-0.41421356237309503
10
122.19398211919994
20
70.945484000000036
10
122.19398211919992
20
72.645484000000039
42
-0.41421356237309503
10
122.39398211919993
20
72.84548400000007
10
124.02898199999993
20
72.845484000000042
10
124.02898199999993
20
73.55048400000004
10
132.15398199999998
20
73.55048400000004
42
-0.41421356237309503
10
135.27898199999998
20
70.42548400000004
10
135.27898199999998
20
70.165484000000035
10
136.91398188079998
20
70.165484000000035
42
-0.41421356237319906
10
137.11398188080005
20
69.965484000000046
10
137.1139818808
20
68.265484000000043
42
-0.41421356237319906
10
136.91398188079998
20
68.065484000000083
10
135.27898199999998
20
68.065484000000041
10
135.27898199999998
20
67.350484000000037
10
131.822407132244
20
67.350484000000037
42
-0.298216626698322
10
131.47871395512246
20
67.575483999999676
42
0.29821662669865506
0
LWPOLYLINE
5
165
100
AcDbEntity
8
0
100
AcDbPolyline
90
4
70
1
43
0.0
10
178.80252385474907
20
25.91895785474901
10
178.80252385474907
20
28.849498145251012
10
180.48306414525103
20
28.849498145251012
10
180.48306414525103
20
25.91895785474901
0
LWPOLYLINE
5
166
100
AcDbEntity
8
0
100
AcDbPolyline
90
21
70
1
43
0.0
10
57.393732930522944
20
31.200484000000035
10
52.953981999999925
20
31.200484000000035
42
-0.41421356237309503
10
52.578981999999925
20
31.575484000000031
10
52.578981999999911
20
32.645484000000032
10
50.94398211919993
20
32.645484000000039
42
-0.41421356237309503
10
50.743982119199927
20
32.845484000000035
10
50.743982119199899
20
34.54548400000003
42
-0.41421356237309503
10
50.94398211919993
20
34.745484000000062
10
52.578981999999911
20
34.745484000000033
10
52.578981999999911
20
35.450484000000031
10
60.703981999999982
20
35.450484000000031
42
-0.41421356237309503
10
63.828981999999982
20
32.325484000000031
10
63.828981999999982
20
32.065484000000033
10
65.463981880799963
20
32.065484000000033
42
-0.41421356237319906
10
65.663981880800023
20
31.865484000000034
10
65.663981880799994
20
30.165484000000031
42
-0.41421356237319906
10
65.463981880799963
20
29.965484000000071
10
63.828981999999982
20
29.965484000000036
10
63.828981999999982
20
29.250484000000032
10
60.372407132243978
20
29.250484000000032
42
-0.29821662669832794
10
60.028713955122441
20
29.475483999999682
42
0.29821662669864574
0
LWPOLYLINE
5
167
100
AcDbEntity
8
0
100
AcDbPolyline
90
21
70
1
43
0.0
10
95.493732930522953
20
31.200484000000035
10
91.053981999999934
20
31.200484000000035
42
-0.41421356237309503
10
90.678981999999934
20
31.575484000000031
10
90.678981999999905
20
32.645484000000032
10
89.043982119199939
20
32.645484000000039
42
-0.41421356237309503
10
88.843982119199936
20
32.845484000000035
10
88.843982119199893
20
34.54548400000003
42
-0.41421356237309503
10
89.043982119199939
20
34.745484000000062
10
90.678981999999905
20
34.745484000000033
10
90.678981999999905
20
35.450484000000031
10
98.803981999999991
20
35.450484000000031
42
-0.41421356237309503
10
101.92898199999999
20
32.325484000000031
10
101.92898199999999
20
32.065484000000033
10
103.56398188079996
20
32.065484000000033
42
-0.41421356237319906
10
103.76398188080003
20
31.865484000000034
10
103.7639818808
20
30.165484000000031
42
-0.41421356237319906
10
103.56398188079996
20
29.965484000000071
10
101.92898199999999
20
29.965484000000036
10
101.92898199999999
20
29.250484000000032
10
98.472407132243973
20
29.250484000000032
42
-0.29821662669832794
10
98.12871395512245
20
29.475483999999682
42
0.29821662669864574
0
LWPOLYLINE
5
168
100
AcDbEntity
8
0
100
AcDbPolyline
90
4
70
1
43
0.0
10
45.452523854749025
20
28.849498145251012
10
47.133064145250991
20
28.849498145251012
10
47.133064145250991
20
25.91895785474901
10
45.452523854749025
20
25.91895785474901
0
LWPOLYLINE
5
169
100
AcDbEntity
8
0
100
AcDbPolyline
90
21
70
1
43
0.0
10
171.693732930523
20
31.200484000000035
10
167.25398199999998
20
31.200484000000053
42
-0.41421356237309503
10
166.87898200000001
20
31.575484000000031
10
166.87898199999995
20
32.645484000000032
10
165.24398211919998
20
32.645484000000039
42
-0.41421356237309503
10
165.0439821192
20
32.845484000000035
10
165.04398211919994
20
34.54548400000003
42
-0.41421356237309503
10
165.24398211919998
20
34.745484000000062
10
166.87898199999995
20
34.745484000000033
10
166.87898199999995
20
35.450484000000031
10
175.00398200000004
20
35.450484000000031
42
-0.41421356237309503
10
178.12898200000004
20
32.325484000000031
10
178.12898200000004
20
32.065484000000033
10
179.7639818808
20
32.065484000000033
42
-0.41421356237319906
10
179.96398188080008
20
31.865484000000034
10
179.96398188080005
20
30.165484000000031
42
-0.41421356237319906
10
179.7639818808
20
29.965484000000071
10
178.12898200000004
20
29.965484000000036
10
178.12898200000004
20
29.250484000000032
10
174.67240713224402
20
29.250484000000018
42
-0.29821662669833604
10
174.32871395512248
20
29.475483999999685
42
0.29821662669864507
0
LWPOLYLINE
5
170
100
AcDbEntity
8
0
100
AcDbPolyline
90
4
70
1
43
0.0
10
66.183064145250995
20
25.91895785474901
10
64.502523854749029
20
25.91895785474901
10
64.502523854749029
20
28.849498145251012
10
66.183064145250995
20
28.849498145251012
0
LWPOLYLINE
5
171
100
AcDbEntity
8
0
100
AcDbPolyline
90
4
70
1
43
0.0
10
159.75252385474906
20
25.91895785474901
10
159.75252385474906
20
28.849498145251012
10
161.43306414525102
20
28.849498145251012
10
161.43306414525102
20
25.91895785474901
0
LWPOLYLINE
5
172
100
AcDbEntity
8
0
100
AcDbPolyline
90
21
70
1
43
0.0
10
152.64373293052299
20
31.200484000000035
10
148.20398199999997
20
31.200484000000035
42
-0.41421356237309503
10
147.82898199999997
20
31.575484000000031
10
147.82898199999994
20
32.645484000000032
10
146.19398211919997
20
32.645484000000039
42
-0.41421356237309503
10
145.99398211919998
20
32.845484000000035
10
145.99398211919993
20
34.54548400000003
42
-0.41421356237309503
10
146.19398211919997
20
34.745484000000062
10
147.82898199999994
20
34.745484000000033
10
147.82898199999994
20
35.450484000000031
10
155.95398200000002
20
35.450484000000031
42
-0.41421356237309503
10
159.07898200000002
20
32.325484000000031
10
159.07898200000002
20
32.065484000000033
10
160.71398188079999
20
32.065484000000033
42
-0.41421356237319906
10
160.91398188080007
20
31.865484000000034
10
160.91398188080004
20
30.165484000000031
42
-0.41421356237319906
10
160.71398188079999
20
29.965484000000071
10
159.07898200000002
20
29.965484000000036
10
159.07898200000002
20
29.250484000000032
10
155.62240713224401
20
29.250484000000032
42
-0.29821662669832794
10
155.27871395512247
20
29.475483999999682
42
0.29821662669864574
0
LWPOLYLINE
5
173
100
AcDbEntity
8
0
100
AcDbPolyline
90
21
70
1
43
0.0
10
76.443732930522941
20
31.200484000000035
10
72.003981999999922
20
31.200484000000035
42
-0.41421356237309503
10
71.628981999999922
20
31.575484000000031
10
71.628981999999908
20
32.645484000000032
10
69.993982119199927
20
32.645484000000032
42
-0.41421356237309503
10
69.793982119199924
20
32.845484000000035
10
69.793982119199896
20
34.54548400000003
42
-0.41421356237309503
10
69.993982119199927
20
34.745484000000062
10
71.628981999999908
20
34.745484000000033
10
71.628981999999908
20
35.450484000000031
10
79.753981999999979
20
35.450484000000024
42
-0.41421356237309503
10
82.878981999999979
20
32.325484000000031
10
82.878981999999979
20
32.065484000000033
10
84.513981880799946
20
32.065484000000033
42
-0.41421356237319906
10
84.71398188080002
20
31.865484000000034
10
84.713981880799992
20
30.165484000000031
42
-0.41421356237319906
10
84.513981880799946
20
29.965484000000071
10
82.878981999999979
20
29.965484000000036
10
82.878981999999979
20
29.250484000000032
10
79.422407132243976
20
29.250484000000032
42
-0.29821662669832794
10
79.078713955122439
20
29.475483999999682
42
0.2982166266986469
0
LWPOLYLINE
5
174
100
AcDbEntity
8
0
100
AcDbPolyline
90
4
70
1
43
0.0
10
102.60252385474902
20
25.91895785474901
10
102.60252385474902
20
28.849498145251012
10
104.28306414525099
20
28.849498145251012
10
104.28306414525099
20
25.91895785474901
0
LWPOLYLINE
5
175
100
AcDbEntity
8
0
100
AcDbPolyline
90
4
70
1
43
0.0
10
121.65252385474903
20
28.849498145251012
10
123.333064145251
20
28.849498145251012
10
123.333064145251
20
25.91895785474901
10
121.65252385474903
20
25.91895785474901
0
CIRCLE
5
176
100
AcDbEntity
8
0
100
AcDbCircle
10
181.41875000000002
20
77.500000000000014
30
0
40
1.9939000000000107
210
-0
220
0
230
1
0
LWPOLYLINE
5
177
100
AcDbEntity
8
0
100
AcDbPolyline
90
21
70
1
43
0.0
10
342.74373293052298
20
69.298994504327581
10
338.30398199999996
20
69.298994504327567
42
-0.41421356237309503
10
337.92898199999996
20
69.673994504327581
10
337.92898199999996
20
70.743994504327588
10
336.2939821192
20
70.74399450432756
42
-0.41421356237309503
10
336.09398211919995
20
70.943994504327591
10
336.09398211919995
20
72.643994504327594
42
-0.41421356237309503
10
336.2939821192
20
72.843994504327611
10
337.92898199999996
20
72.843994504327583
10
337.92898199999996
20
73.548994504327581
10
346.05398200000002
20
73.548994504327581
42
-0.41421356237309503
10
349.17898200000002
20
70.423994504327581
10
349.17898200000002
20
70.16399450432759
10
350.81398188080004
20
70.163994504327604
42
-0.41421356237319906
10
351.01398188080009
20
69.963994504327587
10
351.01398188080003
20
68.263994504327584
42
-0.41421356237319906
10
350.81398188080004
20
68.063994504327624
10
349.17898200000002
20
68.063994504327582
10
349.17898200000002
20
67.348994504327578
10
345.72240713224403
20
67.34899450432755
42
-0.29821662669832716
10
345.37871395512246
20
67.573994504327217
42
0.29821662669865107
0
LWPOLYLINE
5
178
100
AcDbEntity
8
0
100
AcDbPolyline
90
21
70
1
43
0.0
10
323.7200302236605
20
88.340105654900171
10
319.28027929313748
20
88.340105654900157
42
-0.41421356237309503
10
318.90527929313748
20
88.715105654900157
10
318.90527929313748
20
89.78510565490015
10
317.27027941233752
20
89.785105654900136
42
-0.41421356237309503
10
317.07027941233747
20
89.985105654900167
10
317.07027941233747
20
91.68510565490017
42
-0.41421356237309503
10
317.27027941233752
20
91.885105654900201
10
318.90527929313748
20
91.885105654900173
10
318.90527929313748
20
92.590105654900157
10
327.03027929313754
20
92.590105654900157
42
-0.41421356237309503
10
330.15527929313754
20
89.465105654900157
10
330.15527929313754
20
89.205105654900166
10
331.79027917393751
20
89.205105654900194
42
-0.41421356237319906
10
331.99027917393767
20
89.005105654900163
10
331.99027917393755
20
87.30510565490016
42
-0.41421356237319906
10
331.79027917393751
20
87.1051056549002
10
330.15527929313754
20
87.105105654900171
10
330.15527929313754
20
86.390105654900168
10
326.69870442538155
20
86.39010565490014
42
-0.29821662669833898
10
326.35501124825998
20
86.615105654899821
42
0.2982166266986237
0
LWPOLYLINE
5
179
100
AcDbEntity
8
0
100
AcDbPolyline
90
21
70
1
43
0.0
10
342.74373293052298
20
50.269292403462075
10
338.30398199999996
20
50.26929240346206
42
-0.41421356237309503
10
337.92898199999996
20
50.644292403462075
10
337.92898199999996
20
51.714292403462075
10
336.2939821192
20
51.714292403462053
42
-0.41421356237309503
10
336.09398211919995
20
51.914292403462085
10
336.09398211919995
20
53.61429240346208
42
-0.41421356237309503
10
336.2939821192
20
53.814292403462112
10
337.92898199999996
20
53.814292403462076
10
337.92898199999996
20
54.519292403462075
10
346.05398200000002
20
54.519292403462075
42
-0.41421356237309503
10
349.17898200000002
20
51.394292403462075
10
349.17898200000002
20
51.134292403462076
10
350.81398188080004
20
51.134292403462105
42
-0.41421356237319906
10
351.01398188080009
20
50.934292403462074
10
351.01398188080003
20
49.234292403462078
42
-0.41421356237319906
10
350.81398188080004
20
49.034292403462118
10
349.17898200000002
20
49.034292403462075
10
349.17898200000002
20
48.319292403462072
10
345.72240713224403
20
48.31929240346205
42
-0.29821662669832716
10
345.37871395512246
20
48.544292403461711
42
0.29821662669865107
0
CIRCLE
5
180
100
AcDbEntity
8
0
100
AcDbCircle
10
181.41875000000002
20
92.710000000000022
30
0
40
1.5240000000000009
210
-0
220
0
230
1
0
CIRCLE
5
181
100
AcDbEntity
8
0
100
AcDbCircle
10
81.418750000000003
20
77.500000000000014
30
0
40
1.9939000000000018
210
-0
220
0
230
1
0
CIRCLE
5
182
100
AcDbEntity
8
0
100
AcDbCircle
10
81.418750000000003
20
92.710000000000022
30
0
40
1.5240000000000009
210
-0
220
0
230
1
0
CIRCLE
5
183
100
AcDbEntity
8
0
100
AcDbCircle
10
276.70675000000006
20
55.850000000000023
30
0
40
1.9939000000000107
210
-0
220
0
230
1
0
CIRCLE
5
184
100
AcDbEntity
8
0
100
AcDbCircle
10
276.70675000000006
20
40.640000000000015
30
0
40
1.5240000000000009
210
-0
220
0
230
1
0
CIRCLE
5
185
100
AcDbEntity
8
0
100
AcDbCircle
10
252.83075000000002
20
40.640000000000015
30
0
40
1.5240000000000009
210
-0
220
0
230
1
0
CIRCLE
5
186
100
AcDbEntity
8
0
100
AcDbCircle
10
252.83075000000002
20
55.850000000000023
30
0
40
1.9939000000000107
210
-0
220
0
230
1
0
CIRCLE
5
187
100
AcDbEntity
8
0
100
AcDbCircle
10
279.08799999999997
20
17.750000000000021
30
0
40
1.9939000000000107
210
-0
220
0
230
1
0
CIRCLE
5
188
100
AcDbEntity
8
0
100
AcDbCircle
10
279.08799999999997
20
2.5400000000000311
30
0
40
1.5240000000000009
210
-0
220
0
230
1
0
CIRCLE
5
189
100
AcDbEntity
8
0
100
AcDbCircle
10
255.21200000000005
20
2.5400000000000311
30
0
40
1.5240000000000009
210
-0
220
0
230
1
0
CIRCLE
5
190
100
AcDbEntity
8
0
100
AcDbCircle
10
255.21200000000005
20
17.750000000000021
30
0
40
1.9939000000000107
210
-0
220
0
230
1
0
CIRCLE
5
191
100
AcDbEntity
8
0
100
AcDbCircle
10
33.819250000000004
20
58.450000000000024
30
0
40
1.9939000000000018
210
-0
220
0
230
1
0
CIRCLE
5
192
100
AcDbEntity
8
0
100
AcDbCircle
10
33.819250000000004
20
73.660000000000011
30
0
40
1.5240000000000009
210
-0
220
0
230
1
0
CIRCLE
5
193
100
AcDbEntity
8
0
100
AcDbCircle
10
9.9432500000000008
20
58.450000000000024
30
0
40
1.9939000000000007
210
-0
220
0
230
1
0
CIRCLE
5
194
100
AcDbEntity
8
0
100
AcDbCircle
10
9.9432500000000008
20
73.660000000000011
30
0
40
1.5239999999999998
210
-0
220
0
230
1
0
LWPOLYLINE
5
195
100
AcDbEntity
8
0
100
AcDbPolyline
90
4
70
1
43
0.0
10
351.53306414525105
20
9.7994981452510093
10
351.53306414525105
20
6.8689578547490102
10
349.85252385474905
20
6.8689578547490102
10
349.85252385474905
20
9.7994981452510093
0
LWPOLYLINE
5
196
100
AcDbEntity
8
0
100
AcDbPolyline
90
21
70
1
43
0.0
10
342.74373293052298
20
12.150484000000031
10
338.30398199999996
20
12.150484000000016
42
-0.41421356237309503
10
337.92898199999996
20
12.525484000000031
10
337.92898199999996
20
13.595484000000031
10
336.2939821192
20
13.595483999999999
42
-0.41421356237309503
10
336.09398211919995
20
13.79548400000003
10
336.09398211919995
20
15.49548400000003
42
-0.41421356237309503
10
336.2939821192
20
15.695484000000061
10
337.92898199999996
20
15.695484000000031
10
337.92898199999996
20
16.400484000000031
10
346.05398200000002
20
16.400484000000031
42
-0.41421356237309503
10
349.17898200000002
20
13.275484000000031
10
349.17898200000002
20
13.015484000000033
10
350.81398188080004
20
13.015484000000065
42
-0.41421356237319906
10
351.01398188080009
20
12.815484000000033
10
351.01398188080003
20
11.115484000000031
42
-0.41421356237319906
10
350.81398188080004
20
10.91548400000007
10
349.17898200000002
20
10.915484000000031
10
349.17898200000002
20
10.200484000000031
10
345.72240713224403
20
10.200484000000007
42
-0.29821662669832127
10
345.37871395512246
20
10.42548399999966
42
0.29821662669862659
0
LWPOLYLINE
5
197
100
AcDbEntity
8
0
100
AcDbPolyline
90
4
70
1
43
0.0
10
332.53306414525105
20
9.7994981452510093
10
332.53306414525105
20
6.8689578547490102
10
330.85252385474911
20
6.8689578547490102
10
330.85252385474911
20
9.7994981452510093
0
LWPOLYLINE
5
198
100
AcDbEntity
8
0
100
AcDbPolyline
90
4
70
1
43
0.0
10
349.85252385474905
20
64.01746835907656
10
349.85252385474905
20
66.948008649578568
10
351.53306414525105
20
66.948008649578568
10
351.53306414525105
20
64.01746835907656
0
LWPOLYLINE
5
199
100
AcDbEntity
8
0
100
AcDbPolyline
90
4
70
1
43
0.0
10
137.63306414525101
20
66.949498145251013
10
137.63306414525101
20
64.018957854749019
10
135.95252385474905
20
64.018957854749019
10
135.95252385474905
20
66.949498145251013
0
LWPOLYLINE
5
200
100
AcDbEntity
8
0
100
AcDbPolyline
90
21
70
1
43
0.0
10
90.743732930522924
20
69.30048400000004
10
86.303981999999905
20
69.30048400000004
42
-0.41421356237309503
10
85.92898199999992
20
69.67548400000004
10
85.928981999999905
20
70.745484000000033
10
84.29398211919991
20
70.745484000000033
42
-0.41421356237309503
10
84.093982119199921
20
70.945484000000036
10
84.093982119199893
20
72.645484000000039
42
-0.41421356237309503
10
84.29398211919991
20
72.84548400000007
10
85.928981999999905
20
72.845484000000042
10
85.928981999999905
20
73.55048400000004
10
94.053981999999962
20
73.55048400000004
42
-0.41421356237309503
10
97.178981999999962
20
70.42548400000004
10
97.178981999999962
20
70.165484000000035
10
98.813981880799957
20
70.165484000000035
42
-0.41421356237319906
10
99.013981880800017
20
69.965484000000046
10
99.013981880799975
20
68.265484000000043
42
-0.41421356237319906
10
98.813981880799957
20
68.065484000000083
10
97.178981999999962
20
68.065484000000041
10
97.178981999999962
20
67.350484000000037
10
93.722407132243973
20
67.350484000000051
42
-0.29821662669832794
10
93.378713955122436
20
67.57548399999969
42
0.29821662669864613
0
LWPOLYLINE
5
201
100
AcDbEntity
8
0
100
AcDbPolyline
90
21
70
1
43
0.0
10
147.89373293052296
20
69.30048400000004
10
143.45398199999994
20
69.30048400000004
42
-0.41421356237309503
10
143.07898199999994
20
69.67548400000004
10
143.07898199999994
20
70.745484000000033
10
141.44398211919994
20
70.745484000000033
42
-0.41421356237309503
10
141.24398211919996
20
70.945484000000036
10
141.24398211919993
20
72.645484000000039
42
-0.41421356237309503
10
141.44398211919994
20
72.84548400000007
10
143.07898199999994
20
72.845484000000042
10
143.07898199999994
20
73.55048400000004
10
151.203982
20
73.55048400000004
42
-0.41421356237309503
10
154.328982
20
70.42548400000004
10
154.328982
20
70.165484000000035
10
155.96398188079999
20
70.165484000000035
42
-0.41421356237319906
10
156.16398188080007
20
69.965484000000046
10
156.16398188080001
20
68.265484000000043
42
-0.41421356237319906
10
155.96398188079999
20
68.065484000000083
10
154.328982
20
68.065484000000041
10
154.328982
20
67.350484000000037
10
150.87240713224401
20
67.350484000000037
42
-0.298216626698322
10
150.52871395512247
20
67.575483999999676
42
0.29821662669865506
0
LWPOLYLINE
5
202
100
AcDbEntity
8
0
100
AcDbPolyline
90
4
70
1
43
0.0
10
61.433064145250988
20
64.018957854749019
10
59.752523854749022
20
64.018957854749019
10
59.752523854749022
20
66.949498145251013
10
61.433064145250988
20
66.949498145251013
0
LWPOLYLINE
5
203
100
AcDbEntity
8
0
100
AcDbPolyline
90
21
70
1
43
0.0
10
176.49373293052298
20
50.250484000000036
10
172.05398199999996
20
50.250484000000021
42
-0.41421356237309503
10
171.67898199999996
20
50.625484000000036
10
171.67898199999996
20
51.695484000000036
10
170.0439821192
20
51.695484000000036
42
-0.41421356237309503
10
169.84398211919998
20
51.895484000000032
10
169.84398211919995
20
53.595484000000027
42
-0.41421356237309503
10
170.0439821192
20
53.795484000000059
10
171.67898199999996
20
53.795484000000037
10
171.67898199999996
20
54.500484000000036
10
179.80398200000002
20
54.500484000000036
42
-0.41421356237309503
10
182.92898200000002
20
51.375484000000036
10
182.92898200000002
20
51.115484000000038
10
184.56398188080001
20
51.115484000000038
42
-0.41421356237319906
10
184.76398188080009
20
50.915484000000042
10
184.76398188080003
20
49.215484000000032
42
-0.41421356237319906
10
184.56398188080001
20
49.015484000000072
10
182.92898200000002
20
49.015484000000036
10
182.92898200000002
20
48.300484000000033
10
179.47240713224403
20
48.300484000000026
42
-0.29821662669833304
10
179.12871395512246
20
48.525483999999686
42
0.29821662669864268
0
LWPOLYLINE
5
204
100
AcDbEntity
8
0
100
AcDbPolyline
90
21
70
1
43
0.0
10
185.99373293052298
20
69.30048400000004
10
181.55398199999996
20
69.300484000000054
42
-0.41421356237309503
10
181.17898199999999
20
69.67548400000004
10
181.17898199999996
20
70.745484000000033
10
179.54398211919997
20
70.745484000000033
42
-0.41421356237309503
10
179.34398211919998
20
70.945484000000036
10
179.34398211919995
20
72.645484000000039
42
-0.41421356237309503
10
179.54398211919997
20
72.84548400000007
10
181.17898199999996
20
72.845484000000042
10
181.17898199999996
20
73.55048400000004
10
189.30398200000002
20
73.55048400000004
42
-0.41421356237309503
10
192.42898200000002
20
70.42548400000004
10
192.42898200000002
20
70.165484000000035
10
194.06398188080001
20
70.165484000000035
42
-0.41421356237319906
10
194.26398188080009
20
69.965484000000046
10
194.26398188080003
20
68.265484000000043
42
-0.41421356237319906
10
194.06398188080001
20
68.065484000000083
10
192.42898200000002
20
68.065484000000041
10
192.42898200000002
20
67.350484000000037
10
188.97240713224403
20
67.350484000000051
42
-0.29821662669831095
10
188.62871395512252
20
67.575483999999676
42
0.29821662669864835
0
LWPOLYLINE
5
205
100
AcDbEntity
8
0
100
AcDbPolyline
90
4
70
1
43
0.0
10
213.83306414525106
20
64.018957854749019
10
212.15252385474909
20
64.018957854749019
10
212.15252385474909
20
66.949498145251013
10
213.83306414525106
20
66.949498145251013
0
LWPOLYLINE
5
206
100
AcDbEntity
8
0
100
AcDbPolyline
90
4
70
1
43
0.0
10
174.05252385474907
20
64.018957854749019
10
174.05252385474907
20
66.949498145251013
10
175.73306414525103
20
66.949498145251013
10
175.73306414525103
20
64.018957854749019
0
LWPOLYLINE
5
207
100
AcDbEntity
8
0
100
AcDbPolyline
90
4
70
1
43
0.0
10
80.483064145250992
20
64.018957854749019
10
78.802523854749026
20
64.018957854749019
10
78.802523854749026
20
66.949498145251013
10
80.483064145250992
20
66.949498145251013
0
LWPOLYLINE
5
208
100
AcDbEntity
8
0
100
AcDbPolyline
90
4
70
1
43
0.0
10
194.78306414525105
20
64.018957854749019
10
193.10252385474908
20
64.018957854749019
10
193.10252385474908
20
66.949498145251013
10
194.78306414525105
20
66.949498145251013
0
LWPOLYLINE
5
209
100
AcDbEntity
8
0
100
AcDbPolyline
90
4
70
1
43
0.0
10
118.583064145251
20
64.018957854749019
10
116.90252385474903
20
64.018957854749019
10
116.90252385474903
20
66.949498145251013
10
118.583064145251
20
66.949498145251013
0
LWPOLYLINE
5
210
100
AcDbEntity
8
0
100
AcDbPolyline
90
4
70
1
43
0.0
10
156.68306414525102
20
66.949498145251013
10
156.68306414525102
20
64.018957854749019
10
155.00252385474906
20
64.018957854749019
10
155.00252385474906
20
66.949498145251013
0
LWPOLYLINE
5
211
100
AcDbEntity
8
0
100
AcDbPolyline
90
4
70
1
43
0.0
10
330.79074686784963
20
44.987766258211053
10
330.79074686784963
20
47.918306548713055
10
332.49615776420535
20
47.918306548713055
10
332.49615776420535
20
44.987766258211053
0
LWPOLYLINE
5
212
100
AcDbEntity
8
0
100
AcDbPolyline
90
4
70
1
43
0.0
10
35.952523854749032
20
6.8689578547490102
10
35.952523854749032
20
9.7994981452510093
10
37.633064145250998
20
9.7994981452510093
10
37.633064145250998
20
6.8689578547490102
0
LWPOLYLINE
5
213
100
AcDbEntity
8
0
100
AcDbPolyline
90
4
70
1
43
0.0
10
112.15252385474905
20
6.8689578547490102
10
112.15252385474905
20
9.7994981452510093
10
113.83306414525102
20
9.7994981452510093
10
113.83306414525102
20
6.8689578547490102
0
LWPOLYLINE
5
214
100
AcDbEntity
8
0
100
AcDbPolyline
90
21
70
1
43
0.0
10
9.7937329305229426
20
12.150484000000031
10
5.3539819999999239
20
12.150484000000031
42
-0.41421356237309503
10
4.978981999999923
20
12.525484000000031
10
4.9789819999999096
20
13.595484000000031
10
3.3439821191999286
20
13.595484000000031
42
-0.41421356237309503
10
3.1439821191999284
20
13.79548400000003
10
3.1439821191998973
20
15.49548400000003
42
-0.41421356237309503
10
3.3439821191999286
20
15.695484000000061
10
4.9789819999999096
20
15.695484000000031
10
4.9789819999999096
20
16.400484000000031
10
13.103981999999981
20
16.400484000000031
42
-0.41421356237309503
10
16.228981999999981
20
13.275484000000031
10
16.228981999999981
20
13.015484000000033
10
17.863981880799962
20
13.015484000000033
42
-0.41421356237319906
10
18.063981880800032
20
12.815484000000033
10
18.063981880799993
20
11.115484000000031
42
-0.41421356237319906
10
17.863981880799962
20
10.91548400000007
10
16.228981999999981
20
10.915484000000031
10
16.228981999999981
20
10.200484000000031
10
12.772407132243977
20
10.20048400000003
42
-0.29821662669833215
10
12.42871395512244
20
10.425483999999683
42
0.29821662669864496
0
LWPOLYLINE
5
215
100
AcDbEntity
8
0
100
AcDbPolyline
90
4
70
1
43
0.0
10
18.188638940026152
20
6.8701855706292214
10
16.508098649524186
20
6.8701855706292214
10
16.508098649524186
20
9.8007258611312214
10
18.188638940026152
20
9.8007258611312214
0
LWPOLYLINE
5
216
100
AcDbEntity
8
0
100
AcDbPolyline
90
4
70
1
43
0.0
10
283.60252385474911
20
66.948008649578568
10
285.2830641452511
20
66.948008649578568
10
285.2830641452511
20
64.01746835907656
10
283.60252385474911
20
64.01746835907656
0
LWPOLYLINE
5
217
100
AcDbEntity
8
0
100
AcDbPolyline
90
21
70
1
43
0.0
10
200.27003022366051
20
88.340105654900171
10
195.83027929313749
20
88.340105654900157
42
-0.41421356237309503
10
195.45527929313749
20
88.715105654900157
10
195.45527929313749
20
89.78510565490015
10
193.82027941233753
20
89.785105654900136
42
-0.41421356237309503
10
193.62027941233748
20
89.985105654900167
10
193.62027941233748
20
91.68510565490017
42
-0.41421356237309503
10
193.82027941233753
20
91.885105654900201
10
195.45527929313749
20
91.885105654900173
10
195.45527929313749
20
92.590105654900157
10
203.58027929313755
20
92.590105654900157
42
-0.41421356237309503
10
206.70527929313755
20
89.465105654900157
10
206.70527929313755
20
89.205105654900166
10
208.34027917393755
20
89.205105654900166
42
-0.41421356237319906
10
208.54027917393762
20
89.005105654900163
10
208.54027917393756
20
87.30510565490016
42
-0.41421356237319906
10
208.34027917393755
20
87.1051056549002
10
206.70527929313755
20
87.105105654900171
10
206.70527929313755
20
86.390105654900168
10
203.24870442538156
20
86.39010565490014
42
-0.29821662669833898
10
202.90501124826
20
86.615105654899821
42
0.29821662669864119
0
LWPOLYLINE
5
218
100
AcDbEntity
8
0
100
AcDbPolyline
90
4
70
1
43
0.0
10
274.0525238547491
20
9.7994981452510093
10
275.73306414525109
20
9.7994981452510093
10
275.73306414525109
20
6.8689578547490102
10
274.0525238547491
20
6.8689578547490102
0
LWPOLYLINE
5
219
100
AcDbEntity
8
0
100
AcDbPolyline
90
21
70
1
43
0.0
10
276.49373293052304
20
69.298994504327581
10
272.05398200000002
20
69.298994504327595
42
-0.41421356237309503
10
271.67898200000002
20
69.673994504327581
10
271.67898200000002
20
70.743994504327588
10
270.0439821192
20
70.743994504327588
42
-0.41421356237309503
10
269.84398211920001
20
70.943994504327591
10
269.84398211920001
20
72.643994504327594
42
-0.41421356237309503
10
270.0439821192
20
72.843994504327611
10
271.67898200000002
20
72.843994504327583
10
271.67898200000002
20
73.548994504327581
10
279.80398200000008
20
73.548994504327581
42
-0.41421356237309503
10
282.92898200000008
20
70.423994504327581
10
282.92898200000008
20
70.16399450432759
10
284.56398188080004
20
70.163994504327576
42
-0.41421356237319906
10
284.76398188080009
20
69.963994504327587
10
284.76398188080009
20
68.263994504327584
42
-0.41421356237319906
10
284.56398188080004
20
68.063994504327624
10
282.92898200000008
20
68.063994504327582
10
282.92898200000008
20
67.348994504327578
10
279.47240713224409
20
67.348994504327607
42
-0.29821662669831689
10
279.12871395512252
20
67.573994504327217
42
0.29821662669864835
0
LWPOLYLINE
5
220
100
AcDbEntity
8
0
100
AcDbPolyline
90
4
70
1
43
0.0
10
363.14119029826304
20
10.319630337530283
10
363.14119029826304
20
8.5828006321497803
10
359.74415572744527
20
8.5828006321497803
10
359.74415572744527
20
10.319630337530283
0
LWPOLYLINE
5
221
100
AcDbEntity
8
0
100
AcDbPolyline
90
4
70
1
43
0.0
10
372.03890464543042
20
13.807800695546781
10
368.61662616471938
20
13.807800695546781
10
368.61662616471938
20
16.346910536074361
10
372.03890464543042
20
16.346910536074361
0
LWPOLYLINE
5
222
100
AcDbEntity
8
0
100
AcDbPolyline
90
29
70
1
43
0.0
10
342.70888889171664
20
31.194521477560897
10
338.26913796119362
20
31.194521477560883
42
-0.41421356237309503
10
337.89413796119362
20
31.569521477560897
10
337.89413796119362
20
32.639521477560898
10
336.25913808039365
20
32.639521477560869
42
-0.41421356237309503
10
336.05913808039361
20
32.839521477560901
10
336.05913808039361
20
34.539521477560896
42
-0.41421356237309503
10
336.25913808039365
20
34.739521477560928
10
337.89413796119362
20
34.739521477560899
10
337.89413796119362
20
35.444521477560897
10
346.01913796119368
20
35.444521477560897
42
-0.41421356237309503
10
349.14413796119368
20
32.319521477560897
10
349.14413796119368
20
32.059521477560899
10
360.6721775718388
20
32.059521477560899
10
360.6721775718388
20
29.245965803514835
10
363.14119029826304
20
29.245965803514835
10
363.14119029826304
20
27.378265477560877
10
360.6721775718388
20
27.378265477560877
10
360.6721775718388
20
15.615956195727039
10
350.7791378419937
20
15.615956195727039
10
350.7791378419937
20
25.912995332309876
10
349.38076028214948
20
25.912995332309876
10
349.38076028214948
20
28.843535622811878
10
350.7791378419937
20
28.843535622811878
10
350.7791378419937
20
29.959521477560898
10
349.14413796119368
20
29.959521477560898
10
349.14413796119368
20
29.244521477560895
10
345.68756309343769
20
29.244521477560873
42
-0.29821662669832416
10
345.34386991631612
20
29.469521477560534
42
0.29821662669862714
0
LWPOLYLINE
5
223
100
AcDbEntity
8
0
100
AcDbPolyline
90
4
70
1
43
0.0
10
372.03890464543042
20
2.5106018398661023
10
368.61662616471938
20
2.5106018398661023
10
368.61662616471938
20
5.0865103737346606
10
372.03890464543042
20
5.0865103737346606
0
LWPOLYLINE
5
224
100
AcDbEntity
8
0
100
AcDbPolyline
90
4
70
1
43
0.0
10
28.802523854749026
20
66.949498145251013
10
30.483064145250992
20
66.949498145251013
10
30.483064145250992
20
64.018957854749019
10
28.802523854749026
20
64.018957854749019
0
LWPOLYLINE
5
225
100
AcDbEntity
8
0
100
AcDbPolyline
90
27
70
1
43
0.0
10
28.843732930522947
20
12.150484000000031
10
24.403981999999928
20
12.150484000000031
42
-0.41421356237309503
10
24.028981999999925
20
12.525484000000031
10
24.028981999999914
20
13.595484000000031
10
22.393982119199933
20
13.595484000000031
42
-0.41421356237309503
10
22.19398211919993
20
13.79548400000003
10
22.193982119199902
20
15.49548400000003
42
-0.41421356237309503
10
22.393982119199933
20
15.695484000000061
10
24.028981999999914
20
15.695484000000031
10
24.028981999999914
20
16.400484000000031
10
21.066430038988653
20
16.400484000000031
10
21.066430038988653
20
28.843468488747604
10
22.746970329490619
20
28.843468488747604
10
22.746970329490619
20
25.912928198245602
10
30.122341041634016
20
25.912928198245602
10
30.122341041634016
20
16.400484000000031
10
32.153981999999985
20
16.400484000000031
42
-0.41421356237309503
10
35.278981999999985
20
13.275484000000031
10
35.278981999999985
20
13.015484000000033
10
36.913981880799966
20
13.015484000000033
42
-0.41421356237319906
10
37.113981880800033
20
12.815484000000033
10
37.113981880799997
20
11.115484000000031
42
-0.41421356237319906
10
36.913981880799966
20
10.91548400000007
10
35.278981999999985
20
10.915484000000031
10
35.278981999999985
20
10.200484000000031
10
31.822407132243981
20
10.20048400000003
42
-0.29821662669833215
10
31.478713955122441
20
10.425483999999683
42
0.29821662669864568
0
LWPOLYLINE
5
226
100
AcDbEntity
8
0
100
AcDbPolyline
90
21
70
1
43
0.0
10
131.24373293052295
20
88.350484000000051
10
126.80398199999993
20
88.350484000000051
42
-0.41421356237309503
10
126.42898199999996
20
88.725484000000023
10
126.42898199999992
20
89.795484000000044
10
124.79398211919994
20
89.795484000000044
42
-0.41421356237309503
10
124.59398211919995
20
89.995484000000033
10
124.59398211919991
20
91.695484000000036
42
-0.41421356237309503
10
124.79398211919994
20
91.895484000000067
10
126.42898199999992
20
91.895484000000039
10
126.42898199999992
20
92.600484000000037
10
134.55398199999999
20
92.600484000000037
42
-0.41421356237309503
10
137.67898199999999
20
89.475484000000037
10
137.67898199999999
20
89.215484000000046
10
139.31398188079999
20
89.215484000000046
42
-0.41421356237319906
10
139.51398188080003
20
89.015484000000043
10
139.5139818808
20
87.315484000000055
42
-0.41421356237319906
10
139.31398188079999
20
87.115484000000095
10
137.67898199999999
20
87.115484000000052
10
137.67898199999999
20
86.400484000000048
10
134.222407132244
20
86.400484000000048
42
-0.29821662669833388
10
133.87871395512246
20
86.625483999999702
42
0.29821662669865101
0
LWPOLYLINE
5
227
100
AcDbEntity
8
0
100
AcDbPolyline
90
4
70
1
43
0.0
10
140.03306414525102
20
85.999498145251025
10
140.03306414525102
20
83.068957854749016
10
138.35252385474905
20
83.068957854749016
10
138.35252385474905
20
85.999498145251025
0
LWPOLYLINE
5
228
100
AcDbEntity
8
0
100
AcDbPolyline
90
21
70
1
43
0.0
10
21.693732930522941
20
69.30048400000004
10
17.253981999999922
20
69.30048400000004
42
-0.41421356237309503
10
16.878981999999926
20
69.67548400000004
10
16.878981999999908
20
70.745484000000033
10
15.243982119199927
20
70.745484000000033
42
-0.41421356237309503
10
15.043982119199931
20
70.945484000000036
10
15.043982119199896
20
72.645484000000039
42
-0.41421356237309503
10
15.243982119199927
20
72.84548400000007
10
16.878981999999908
20
72.845484000000042
10
16.878981999999908
20
73.55048400000004
10
25.003981999999979
20
73.55048400000004
42
-0.41421356237309503
10
28.128981999999979
20
70.42548400000004
10
28.128981999999979
20
70.165484000000035
10
29.76398188079996
20
70.165484000000035
42
-0.41421356237319906
10
29.963981880800027
20
69.965484000000046
10
29.963981880799992
20
68.265484000000043
42
-0.41421356237319906
10
29.76398188079996
20
68.065484000000083
10
28.128981999999979
20
68.065484000000041
10
28.128981999999979
20
67.350484000000037
10
24.672407132243976
20
67.350484000000051
42
-0.29821662669832921
10
24.328713955122439
20
67.57548399999969
42
0.29821662669864396
0
LWPOLYLINE
5
229
100
AcDbEntity
8
0
100
AcDbPolyline
90
4
70
1
43
0.0
10
372.03890464543042
20
21.241136750424623
10
368.61662616471938
20
21.241136750424623
10
368.61662616471938
20
24.037837444339054
10
372.03890464543042
20
24.037837444339054
0
LWPOLYLINE
5
230
100
AcDbEntity
8
0
100
AcDbPolyline
90
4
70
1
43
0.0
10
379.0306563802165
20
5.7120881605313123
10
373.82338603060589
20
5.7120881605313123
10
373.82338603060589
20
14.911761495776163
10
379.0306563802165
20
14.911761495776163
0
LWPOLYLINE
5
231
100
AcDbEntity
8
0
100
AcDbPolyline
90
4
70
1
43
0.0
10
381.37190325770661
20
92.275420059439057
10
381.37190325770661
20
84.016263360591083
10
375.06190753978677
20
84.016263360591083
10
375.06190753978677
20
92.275420059439057
0
LWPOLYLINE
5
232
100
AcDbEntity
8
0
100
AcDbPolyline
90
4
70
1
43
0.0
10
75.733064145251006
20
9.7994981452510093
10
75.733064145251006
20
6.8689578547490102
10
74.05252385474904
20
6.8689578547490102
10
74.05252385474904
20
9.7994981452510093
0
LWPOLYLINE
5
233
100
AcDbEntity
8
0
100
AcDbPolyline
90
21
70
1
43
0.0
10
266.94373293052303
20
12.150484000000031
10
262.50398200000001
20
12.150484000000016
42
-0.41421356237309503
10
262.12898199999995
20
12.525484000000031
10
262.12898199999995
20
13.595484000000031
10
260.49398211919998
20
13.595484000000035
42
-0.41421356237309503
10
260.2939821192
20
13.79548400000003
10
260.2939821192
20
15.49548400000003
42
-0.41421356237309503
10
260.49398211919998
20
15.695484000000061
10
262.12898199999995
20
15.695484000000031
10
262.12898199999995
20
16.400484000000031
10
270.25398200000006
20
16.400484000000031
42
-0.41421356237309503
10
273.37898200000006
20
13.275484000000031
10
273.37898200000006
20
13.015484000000033
10
275.01398188080003
20
13.015484000000029
42
-0.41421356237319906
10
275.21398188080008
20
12.815484000000033
10
275.21398188080008
20
11.115484000000031
42
-0.41421356237319906
10
275.01398188080003
20
10.91548400000007
10
273.37898200000006
20
10.915484000000031
10
273.37898200000006
20
10.200484000000031
10
269.92240713224408
20
10.200484000000042
42
-0.29821662669831533
10
269.57871395512251
20
10.425483999999667
42
0.29821662669864285
0
LWPOLYLINE
5
234
100
AcDbEntity
8
0
100
AcDbPolyline
90
4
70
1
43
0.0
10
245.50252385474909
20
6.8689578547490102
10
245.50252385474909
20
9.7994981452510093
10
247.18306414525105
20
9.7994981452510093
10
247.18306414525105
20
6.8689578547490102
0
LWPOLYLINE
5
235
100
AcDbEntity
8
0
100
AcDbPolyline
90
4
70
1
43
0.0
10
94.783064145251004
20
6.8689578547490102
10
93.102523854749037
20
6.8689578547490102
10
93.102523854749037
20
9.7994981452510093
10
94.783064145251004
20
9.7994981452510093
0
LWPOLYLINE
5
236
100
AcDbEntity
8
0
100
AcDbPolyline
90
21
70
1
43
0.0
10
105.04373293052296
20
12.150484000000031
10
100.60398199999995
20
12.150484000000034
42
-0.41421356237309503
10
100.22898199999995
20
12.525484000000031
10
100.22898199999993
20
13.595484000000031
10
98.59398211919995
20
13.595484000000035
42
-0.41421356237309503
10
98.393982119199961
20
13.79548400000003
10
98.393982119199919
20
15.49548400000003
42
-0.41421356237309503
10
98.59398211919995
20
15.695484000000061
10
100.22898199999993
20
15.695484000000031
10
100.22898199999993
20
16.400484000000031
10
108.353982
20
16.400484000000031
42
-0.41421356237309503
10
111.478982
20
13.275484000000031
10
111.478982
20
13.015484000000033
10
113.11398188079998
20
13.015484000000029
42
-0.41421356237319906
10
113.31398188080004
20
12.815484000000033
10
113.31398188080001
20
11.115484000000031
42
-0.41421356237319906
10
113.11398188079998
20
10.91548400000007
10
111.478982
20
10.915484000000031
10
111.478982
20
10.200484000000031
10
108.022407132244
20
10.200484000000031
42
-0.29821662669832943
10
107.67871395512246
20
10.425483999999681
42
0.29821662669864635
0
LWPOLYLINE
5
237
100
AcDbEntity
8
0
100
AcDbPolyline
90
21
70
1
43
0.0
10
85.993732930522953
20
12.150484000000031
10
81.553981999999934
20
12.150484000000034
42
-0.41421356237309503
10
81.178981999999934
20
12.525484000000031
10
81.17898199999992
20
13.595484000000031
10
79.543982119199939
20
13.595484000000035
42
-0.41421356237309503
10
79.34398211919995
20
13.79548400000003
10
79.343982119199907
20
15.49548400000003
42
-0.41421356237309503
10
79.543982119199939
20
15.695484000000061
10
81.17898199999992
20
15.695484000000031
10
81.17898199999992
20
16.400484000000031
10
89.303981999999991
20
16.400484000000031
42
-0.41421356237309503
10
92.428981999999991
20
13.275484000000031
10
92.428981999999991
20
13.015484000000033
10
94.063981880799972
20
13.015484000000029
42
-0.41421356237319906
10
94.263981880800031
20
12.815484000000033
10
94.263981880800003
20
11.115484000000031
42
-0.41421356237319906
10
94.063981880799972
20
10.91548400000007
10
92.428981999999991
20
10.915484000000031
10
92.428981999999991
20
10.200484000000031
10
88.972407132243987
20
10.200484000000031
42
-0.29821662669832794
10
88.62871395512245
20
10.425483999999678
42
0.2982166266986464
0
LWPOLYLINE
5
238
100
AcDbEntity
8
0
100
AcDbPolyline
90
4
70
1
43
0.0
10
330.76705461484937
20
25.912995332309876
10
330.76705461484937
20
28.924535944561349
10
332.43746986513264
20
28.924535944561349
10
332.43746986513264
20
25.912995332309876
0
LWPOLYLINE
5
239
100
AcDbEntity
8
0
100
AcDbPolyline
90
21
70
1
43
0.0
10
323.70682654947728
20
50.269292403462075
10
319.26707561895427
20
50.26929240346206
42
-0.41421356237309503
10
318.89207561895427
20
50.644292403462075
10
318.89207561895427
20
51.714292403462075
10
317.2570757381543
20
51.714292403462082
42
-0.41421356237309503
10
317.05707573815425
20
51.914292403462085
10
317.05707573815425
20
53.61429240346208
42
-0.41421356237309503
10
317.2570757381543
20
53.814292403462112
10
318.89207561895427
20
53.814292403462076
10
318.89207561895427
20
54.519292403462075
10
327.01707561895432
20
54.519292403462075
42
-0.41421356237309503
10
330.14207561895432
20
51.394292403462075
10
330.14207561895432
20
51.134292403462076
10
331.77707549975429
20
51.134292403462105
42
-0.41421356237319906
10
331.97707549975439
20
50.934292403462074
10
331.97707549975433
20
49.234292403462078
42
-0.41421356237319906
10
331.77707549975429
20
49.034292403462118
10
330.14207561895432
20
49.034292403462075
10
330.14207561895432
20
48.319292403462072
10
326.68550075119833
20
48.31929240346205
42
-0.29821662669832716
10
326.34180757407677
20
48.544292403461711
42
0.29821662669864701
0
LWPOLYLINE
5
240
100
AcDbEntity
8
0
100
AcDbPolyline
90
21
70
1
43
0.0
10
219.343732930523
20
12.150484000000031
10
214.90398199999998
20
12.150484000000016
42
-0.41421356237309503
10
214.52898199999996
20
12.525484000000031
10
214.52898199999996
20
13.595484000000031
10
212.89398211919999
20
13.595484000000035
42
-0.41421356237309503
10
212.69398211919997
20
13.79548400000003
10
212.69398211919994
20
15.49548400000003
42
-0.41421356237309503
10
212.89398211919999
20
15.695484000000061
10
214.52898199999996
20
15.695484000000031
10
214.52898199999996
20
16.400484000000031
10
222.65398200000004
20
16.400484000000031
42
-0.41421356237309503
10
225.77898200000004
20
13.275484000000031
10
225.77898200000004
20
13.015484000000033
10
227.41398188080001
20
13.015484000000029
42
-0.41421356237319906
10
227.61398188080008
20
12.815484000000033
10
227.61398188080005
20
11.115484000000031
42
-0.41421356237319906
10
227.41398188080001
20
10.91548400000007
10
225.77898200000004
20
10.915484000000031
10
225.77898200000004
20
10.200484000000031
10
222.32240713224402
20
10.200484000000042
42
-0.29821662669831533
10
221.97871395512252
20
10.425483999999667
42
0.29821662669865034
0
LWPOLYLINE
5
241
100
AcDbEntity
8
0
100
AcDbPolyline
90
4
70
1
43
0.0
10
226.45252385474907
20
6.8689578547490102
10
226.45252385474907
20
9.7994981452510093
10
228.13306414525104
20
9.7994981452510093
10
228.13306414525104
20
6.8689578547490102
0
LWPOLYLINE
5
242
100
AcDbEntity
8
0
100
AcDbPolyline
90
21
70
1
43
0.0
10
238.39373293052302
20
12.150484000000031
10
233.953982
20
12.150484000000016
42
-0.41421356237309503
10
233.57898199999997
20
12.525484000000031
10
233.57898199999997
20
13.595484000000031
10
231.9439821192
20
13.595484000000035
42
-0.41421356237309503
10
231.74398211919998
20
13.79548400000003
10
231.74398211919996
20
15.49548400000003
42
-0.41421356237309503
10
231.9439821192
20
15.695484000000061
10
233.57898199999997
20
15.695484000000031
10
233.57898199999997
20
16.400484000000031
10
241.70398200000005
20
16.400484000000031
42
-0.41421356237309503
10
244.82898200000005
20
13.275484000000031
10
244.82898200000005
20
13.015484000000033
10
246.46398188080002
20
13.015484000000029
42
-0.41421356237319906
10
246.66398188080009
20
12.815484000000033
10
246.66398188080007
20
11.115484000000031
42
-0.41421356237319906
10
246.46398188080002
20
10.91548400000007
10
244.82898200000005
20
10.915484000000031
10
244.82898200000005
20
10.200484000000031
10
241.37240713224404
20
10.200484000000021
42
-0.29821662669834192
10
241.0287139551225
20
10.425483999999692
42
0.29821662669865423
0
LWPOLYLINE
5
243
100
AcDbEntity
8
0
100
AcDbPolyline
90
4
70
1
43
0.0
10
199.53306414525105
20
28.849498145251012
10
199.53306414525105
20
25.91895785474901
10
197.85252385474908
20
25.91895785474901
10
197.85252385474908
20
28.849498145251012
0
LWPOLYLINE
5
244
100
AcDbEntity
8
0
100
AcDbPolyline
90
21
70
1
43
0.0
10
133.59373293052298
20
31.200484000000035
10
129.15398199999996
20
31.200484000000035
42
-0.41421356237309503
10
128.77898199999996
20
31.575484000000031
10
128.77898199999993
20
32.645484000000032
10
127.14398211919996
20
32.645484000000039
42
-0.41421356237309503
10
126.94398211919996
20
32.845484000000035
10
126.94398211919992
20
34.54548400000003
42
-0.41421356237309503
10
127.14398211919996
20
34.745484000000062
10
128.77898199999993
20
34.745484000000033
10
128.77898199999993
20
35.450484000000031
10
136.90398200000001
20
35.450484000000031
42
-0.41421356237309503
10
140.02898200000001
20
32.325484000000031
10
140.02898200000001
20
32.065484000000033
10
141.66398188079998
20
32.065484000000033
42
-0.41421356237319906
10
141.86398188080005
20
31.865484000000034
10
141.86398188080003
20
30.165484000000031
42
-0.41421356237319906
10
141.66398188079998
20
29.965484000000071
10
140.02898200000001
20
29.965484000000036
10
140.02898200000001
20
29.250484000000032
10
136.572407132244
20
29.250484000000032
42
-0.29821662669832794
10
136.22871395512246
20
29.475483999999682
42
0.29821662669864574
0
LWPOLYLINE
5
245
100
AcDbEntity
8
0
100
AcDbPolyline
90
4
70
1
43
0.0
10
256.68306414525102
20
25.91895785474901
10
255.00252385474909
20
25.91895785474901
10
255.00252385474909
20
28.849498145251012
10
256.68306414525102
20
28.849498145251012
0
LWPOLYLINE
5
246
100
AcDbEntity
8
0
100
AcDbPolyline
90
21
70
1
43
0.0
10
114.54373293052296
20
31.200484000000035
10
110.10398199999995
20
31.200484000000035
42
-0.41421356237309503
10
109.72898199999995
20
31.575484000000031
10
109.72898199999992
20
32.645484000000032
10
108.09398211919995
20
32.645484000000039
42
-0.41421356237309503
10
107.89398211919995
20
32.845484000000035
10
107.8939821191999
20
34.54548400000003
42
-0.41421356237309503
10
108.09398211919995
20
34.745484000000062
10
109.72898199999992
20
34.745484000000033
10
109.72898199999992
20
35.450484000000031
10
117.853982
20
35.450484000000031
42
-0.41421356237309503
10
120.978982
20
32.325484000000031
10
120.978982
20
32.065484000000033
10
122.61398188079997
20
32.065484000000033
42
-0.41421356237319906
10
122.81398188080004
20
31.865484000000034
10
122.81398188080001
20
30.165484000000031
42
-0.41421356237319906
10
122.61398188079997
20
29.965484000000071
10
120.978982
20
29.965484000000036
10
120.978982
20
29.250484000000032
10
117.52240713224398
20
29.250484000000032
42
-0.29821662669832794
10
117.17871395512246
20
29.475483999999682
42
0.29821662669864574
0
LWPOLYLINE
5
247
100
AcDbEntity
8
0
100
AcDbPolyline
90
4
70
1
43
0.0
10
83.552523854749012
20
28.849498145251012
10
85.233064145250978
20
28.849498145251012
10
85.233064145250978
20
25.91895785474901
10
83.552523854749012
20
25.91895785474901
0
LWPOLYLINE
5
248
100
AcDbEntity
8
0
100
AcDbPolyline
90
21
70
1
43
0.0
10
38.34373293052294
20
31.200484000000035
10
33.903981999999921
20
31.200484000000035
42
-0.41421356237309503
10
33.528981999999921
20
31.575484000000031
10
33.528981999999907
20
32.645484000000032
10
31.893982119199926
20
32.645484000000032
42
-0.41421356237309503
10
31.693982119199923
20
32.845484000000035
10
31.693982119199894
20
34.54548400000003
42
-0.41421356237309503
10
31.893982119199926
20
34.745484000000062
10
33.528981999999907
20
34.745484000000033
10
33.528981999999907
20
35.450484000000031
10
41.653981999999978
20
35.450484000000031
42
-0.41421356237309503
10
44.778981999999978
20
32.325484000000031
10
44.778981999999978
20
32.065484000000033
10
46.413981880799959
20
32.065484000000041
42
-0.41421356237319906
10
46.613981880800033
20
31.865484000000034
10
46.61398188079999
20
30.165484000000031
42
-0.41421356237319906
10
46.413981880799959
20
29.965484000000071
10
44.778981999999978
20
29.965484000000036
10
44.778981999999978
20
29.250484000000032
10
41.322407132243974
20
29.250484000000032
42
-0.29821662669832794
10
40.978713955122437
20
29.475483999999682
42
0.2982166266986469
0
LWPOLYLINE
5
249
100
AcDbEntity
8
0
100
AcDbPolyline
90
4
70
1
43
0.0
10
142.38306414525101
20
25.91895785474901
10
140.70252385474905
20
25.91895785474901
10
140.70252385474905
20
28.849498145251012
10
142.38306414525101
20
28.849498145251012
0
LWPOLYLINE
5
250
100
AcDbEntity
8
0
100
AcDbPolyline
90
21
70
1
43
0.0
10
190.74373293052301
20
31.200484000000035
10
186.30398199999999
20
31.200484000000053
42
-0.41421356237309503
10
185.92898200000002
20
31.575484000000031
10
185.92898199999996
20
32.645484000000032
10
184.2939821192
20
32.645484000000039
42
-0.41421356237309503
10
184.09398211920001
20
32.845484000000035
10
184.09398211919995
20
34.54548400000003
42
-0.41421356237309503
10
184.2939821192
20
34.745484000000062
10
185.92898199999996
20
34.745484000000033
10
185.92898199999996
20
35.450484000000031
10
194.05398200000005
20
35.450484000000031
42
-0.41421356237309503
10
197.17898200000005
20
32.325484000000031
10
197.17898200000005
20
32.065484000000033
10
198.81398188080001
20
32.065484000000033
42
-0.41421356237319906
10
199.01398188080009
20
31.865484000000034
10
199.01398188080006
20
30.165484000000031
42
-0.41421356237319906
10
198.81398188080001
20
29.965484000000071
10
197.17898200000005
20
29.965484000000036
10
197.17898200000005
20
29.250484000000032
10
193.72240713224403
20
29.250484000000018
42
-0.29821662669833604
10
193.37871395512249
20
29.475483999999685
42
0.29821662669864507
0
LWPOLYLINE
5
251
100
AcDbEntity
8
0
100
AcDbPolyline
90
4
70
1
43
0.0
10
349.82882114788657
20
83.058579509649149
10
349.82882114788657
20
85.989119800151144
10
351.50936143838857
20
85.989119800151144
10
351.50936143838857
20
83.058579509649149
0
LWPOLYLINE
5
252
100
AcDbEntity
8
0
100
AcDbPolyline
90
4
70
1
43
0.0
10
304.28306414525105
20
47.918306548713055
10
304.28306414525105
20
44.987766258211053
10
302.57765324889539
20
44.987766258211053
10
302.57765324889539
20
47.918306548713055
0
LWPOLYLINE
5
253
100
AcDbEntity
8
0
100
AcDbPolyline
90
21
70
1
43
0.0
10
295.49373293052304
20
69.298994504327581
10
291.05398200000002
20
69.298994504327595
42
-0.41421356237309503
10
290.67898200000002
20
69.673994504327581
10
290.67898199999996
20
70.743994504327588
10
289.0439821192
20
70.743994504327588
42
-0.41421356237309503
10
288.84398211920001
20
70.943994504327591
10
288.84398211919995
20
72.643994504327594
42
-0.41421356237309503
10
289.0439821192
20
72.843994504327611
10
290.67898199999996
20
72.843994504327583
10
290.67898199999996
20
73.548994504327581
10
298.80398200000008
20
73.548994504327581
42
-0.41421356237309503
10
301.92898200000008
20
70.423994504327581
10
301.92898200000008
20
70.16399450432759
10
303.56398188080004
20
70.163994504327576
42
-0.41421356237319906
10
303.76398188080009
20
69.963994504327587
10
303.76398188080009
20
68.263994504327584
42
-0.41421356237319906
10
303.56398188080004
20
68.063994504327624
10
301.92898200000008
20
68.063994504327582
10
301.92898200000008
20
67.348994504327578
10
298.47240713224403
20
67.348994504327607
42
-0.29821662669831689
10
298.12871395512252
20
67.573994504327217
42
0.29821662669864835
0
LWPOLYLINE
5
254
100
AcDbEntity
8
0
100
AcDbPolyline
90
4
70
1
43
0.0
10
304.28306414525105
20
64.01746835907656
10
302.60252385474911
20
64.01746835907656
10
302.60252385474911
20
66.948008649578568
10
304.28306414525105
20
66.948008649578568
0
LWPOLYLINE
5
255
100
AcDbEntity
8
0
100
AcDbPolyline
90
21
70
1
43
0.0
10
342.7200302236605
20
88.340105654900171
10
338.28027929313748
20
88.340105654900157
42
-0.41421356237309503
10
337.90527929313748
20
88.715105654900157
10
337.90527929313748
20
89.78510565490015
10
336.27027941233746
20
89.785105654900136
42
-0.41421356237309503
10
336.07027941233747
20
89.985105654900167
10
336.07027941233747
20
91.68510565490017
42
-0.41421356237309503
10
336.27027941233746
20
91.885105654900201
10
337.90527929313748
20
91.885105654900173
10
337.90527929313748
20
92.590105654900157
10
346.03027929313754
20
92.590105654900157
42
-0.41421356237309503
10
349.15527929313754
20
89.465105654900157
10
349.15527929313754
20
89.205105654900166
10
350.79027917393751
20
89.205105654900123
42
-0.41421356237319906
10
350.99027917393755
20
89.005105654900163
10
350.99027917393755
20
87.30510565490016
42
-0.41421356237319906
10
350.79027917393751
20
87.1051056549002
10
349.15527929313754
20
87.105105654900171
10
349.15527929313754
20
86.390105654900168
10
345.69870442538155
20
86.39010565490014
42
-0.29821662669833898
10
345.35501124825998
20
86.615105654899821
42
0.2982166266986237
0
LWPOLYLINE
5
256
100
AcDbEntity
8
0
100
AcDbPolyline
90
4
70
1
43
0.0
10
302.57882114788663
20
83.058579509649149
10
302.57882114788663
20
85.989119800151144
10
304.25936143838857
20
85.989119800151144
10
304.25936143838857
20
83.058579509649149
0
LWPOLYLINE
5
257
100
AcDbEntity
8
0
100
AcDbPolyline
90
21
70
1
43
0.0
10
295.49373293052304
20
50.269292403462075
10
291.05398200000002
20
50.269292403462096
42
-0.41421356237309503
10
290.67898200000002
20
50.644292403462075
10
290.67898199999996
20
51.714292403462075
10
289.0439821192
20
51.714292403462082
42
-0.41421356237309503
10
288.84398211920001
20
51.914292403462085
10
288.84398211919995
20
53.61429240346208
42
-0.41421356237309503
10
289.0439821192
20
53.814292403462112
10
290.67898199999996
20
53.814292403462076
10
290.67898199999996
20
54.519292403462075
10
298.80398200000008
20
54.519292403462075
42
-0.41421356237309503
10
301.92898200000008
20
51.394292403462075
10
301.92898200000008
20
51.134292403462076
10
303.56398188080004
20
51.134292403462069
42
-0.41421356237319906
10
303.76398188080009
20
50.934292403462074
10
303.76398188080009
20
49.234292403462078
42
-0.41421356237319906
10
303.56398188080004
20
49.034292403462118
10
301.92898200000008
20
49.034292403462075
10
301.92898200000008
20
48.319292403462072
10
298.47240713224403
20
48.319292403462093
42
-0.29821662669831689
10
298.12871395512252
20
48.544292403461711
42
0.29821662669864835
0
LWPOLYLINE
5
258
100
AcDbEntity
8
0
100
AcDbPolyline
90
4
70
1
43
0.0
10
283.57882114788663
20
85.989119800151144
10
285.25936143838857
20
85.989119800151144
10
285.25936143838857
20
83.058579509649149
10
283.57882114788663
20
83.058579509649149
0
LWPOLYLINE
5
259
100
AcDbEntity
8
0
100
AcDbPolyline
90
21
70
1
43
0.0
10
295.51142228036122
20
31.194521477560897
10
291.0716713498382
20
31.194521477560919
42
-0.41421356237309503
10
290.69667134983825
20
31.569521477560897
10
290.6966713498382
20
32.639521477560898
10
289.06167146903823
20
32.639521477560905
42
-0.41421356237309503
10
288.86167146903824
20
32.839521477560901
10
288.86167146903819
20
34.539521477560896
42
-0.41421356237309503
10
289.06167146903823
20
34.739521477560928
10
290.6966713498382
20
34.739521477560899
10
290.6966713498382
20
35.444521477560897
10
298.82167134983825
20
35.444521477560897
42
-0.41421356237309503
10
301.94667134983825
20
32.319521477560897
10
301.94667134983825
20
32.059521477560899
10
303.58167123063828
20
32.059521477560892
42
-0.41421356237319906
10
303.78167123063832
20
31.8595214775609
10
303.78167123063827
20
30.159521477560894
42
-0.41421356237319906
10
303.58167123063828
20
29.959521477560934
10
301.94667134983825
20
29.959521477560898
10
301.94667134983825
20
29.244521477560895
10
298.49009648208227
20
29.244521477560884
42
-0.29821662669833604
10
298.1464033049607
20
29.469521477560548
42
0.29821662669864507
0
LWPOLYLINE
5
260
100
AcDbEntity
8
0
100
AcDbPolyline
90
4
70
1
43
0.0
10
304.24000325377722
20
25.912995332309876
10
302.56958800349389
20
25.912995332309876
10
302.56958800349389
20
28.924535944561349
10
304.24000325377722
20
28.924535944561349
0
LWPOLYLINE
5
261
100
AcDbEntity
8
0
100
AcDbPolyline
90
4
70
1
43
0.0
10
264.57882114788663
20
85.989119800151144
10
266.25936143838857
20
85.989119800151144
10
266.25936143838857
20
83.058579509649149
10
264.57882114788663
20
83.058579509649149
0
LWPOLYLINE
5
262
100
AcDbEntity
8
0
100
AcDbPolyline
90
21
70
1
43
0.0
10
276.47003022366056
20
88.340105654900171
10
272.03027929313754
20
88.340105654900185
42
-0.41421356237309503
10
271.65527929313754
20
88.715105654900157
10
271.65527929313748
20
89.78510565490015
10
270.02027941233752
20
89.785105654900178
42
-0.41421356237309503
10
269.82027941233753
20
89.985105654900167
10
269.82027941233747
20
91.68510565490017
42
-0.41421356237309503
10
270.02027941233752
20
91.885105654900201
10
271.65527929313748
20
91.885105654900173
10
271.65527929313748
20
92.590105654900157
10
279.7802792931376
20
92.590105654900157
42
-0.41421356237309503
10
282.9052792931376
20
89.465105654900157
10
282.9052792931376
20
89.205105654900166
10
284.54027917393756
20
89.205105654900166
42
-0.41421356237319906
10
284.74027917393761
20
89.005105654900163
10
284.74027917393761
20
87.30510565490016
42
-0.41421356237319906
10
284.54027917393756
20
87.1051056549002
10
282.9052792931376
20
87.105105654900171
10
282.9052792931376
20
86.390105654900168
10
279.44870442538155
20
86.39010565490014
42
-0.29821662669833898
10
279.10501124826004
20
86.615105654899821
42
0.29821662669864829
0
LWPOLYLINE
5
263
100
AcDbEntity
8
0
100
AcDbPolyline
90
4
70
1
43
0.0
10
55.002523854749029
20
9.7994981452510093
10
56.683064145250995
20
9.7994981452510093
10
56.683064145250995
20
6.8689578547490102
10
55.002523854749029
20
6.8689578547490102
0
LWPOLYLINE
5
264
100
AcDbEntity
8
0
100
AcDbPolyline
90
4
70
1
43
0.0
10
349.85252385474905
20
44.987766258211053
10
349.85252385474905
20
47.918306548713055
10
351.53306414525105
20
47.918306548713055
10
351.53306414525105
20
44.987766258211053
0
LWPOLYLINE
5
265
100
AcDbEntity
8
0
100
AcDbPolyline
90
21
70
1
43
0.0
10
323.7088888917167
20
31.194521477560897
10
319.26913796119368
20
31.194521477560883
42
-0.41421356237309503
10
318.89413796119362
20
31.569521477560897
10
318.89413796119362
20
32.639521477560898
10
317.25913808039365
20
32.639521477560905
42
-0.41421356237309503
10
317.05913808039367
20
32.839521477560901
10
317.05913808039361
20
34.539521477560896
42
-0.41421356237309503
10
317.25913808039365
20
34.739521477560928
10
318.89413796119362
20
34.739521477560899
10
318.89413796119362
20
35.444521477560897
10
327.01913796119368
20
35.444521477560897
42
-0.41421356237309503
10
330.14413796119368
20
32.319521477560897
10
330.14413796119368
20
32.059521477560899
10
331.7791378419937
20
32.059521477560928
42
-0.41421356237319906
10
331.9791378419938
20
31.8595214775609
10
331.97913784199375
20
30.159521477560894
42
-0.41421356237319906
10
331.7791378419937
20
29.959521477560934
10
330.14413796119368
20
29.959521477560898
10
330.14413796119368
20
29.244521477560895
10
326.68756309343769
20
29.244521477560873
42
-0.29821662669832416
10
326.34386991631618
20
29.469521477560534
42
0.29821662669862714
0
LWPOLYLINE
5
266
100
AcDbEntity
8
0
100
AcDbPolyline
90
21
70
1
43
0.0
10
323.74373293052304
20
69.298994504327581
10
319.30398200000002
20
69.298994504327567
42
-0.41421356237309503
10
318.92898199999996
20
69.673994504327581
10
318.92898199999996
20
70.743994504327588
10
317.2939821192
20
70.743994504327588
42
-0.41421356237309503
10
317.09398211920001
20
70.943994504327591
10
317.09398211919995
20
72.643994504327594
42
-0.41421356237309503
10
317.2939821192
20
72.843994504327611
10
318.92898199999996
20
72.843994504327583
10
318.92898199999996
20
73.548994504327581
10
327.05398200000002
20
73.548994504327581
42
-0.41421356237309503
10
330.17898200000002
20
70.423994504327581
10
330.17898200000002
20
70.16399450432759
10
331.81398188080004
20
70.163994504327604
42
-0.41421356237319906
10
332.01398188080015
20
69.963994504327587
10
332.01398188080009
20
68.263994504327584
42
-0.41421356237319906
10
331.81398188080004
20
68.063994504327624
10
330.17898200000002
20
68.063994504327582
10
330.17898200000002
20
67.348994504327578
10
326.72240713224403
20
67.34899450432755
42
-0.29821662669832716
10
326.37871395512252
20
67.573994504327217
42
0.29821662669864701
0
LWPOLYLINE
5
267
100
AcDbEntity
8
0
100
AcDbPolyline
90
21
70
1
43
0.0
10
124.09373293052298
20
12.150484000000031
10
119.65398199999996
20
12.150484000000034
42
-0.41421356237309503
10
119.27898199999996
20
12.525484000000031
10
119.27898199999994
20
13.595484000000031
10
117.64398211919996
20
13.595484000000035
42
-0.41421356237309503
10
117.44398211919997
20
13.79548400000003
10
117.44398211919993
20
15.49548400000003
42
-0.41421356237309503
10
117.64398211919996
20
15.695484000000061
10
119.27898199999994
20
15.695484000000031
10
119.27898199999994
20
16.400484000000031
10
127.40398200000001
20
16.400484000000031
42
-0.41421356237309503
10
130.52898200000001
20
13.275484000000031
10
130.52898200000001
20
13.015484000000033
10
132.16398188080001
20
13.015484000000029
42
-0.41421356237319906
10
132.36398188080005
20
12.815484000000033
10
132.36398188080003
20
11.115484000000031
42
-0.41421356237319906
10
132.16398188080001
20
10.91548400000007
10
130.52898200000001
20
10.915484000000031
10
130.52898200000001
20
10.200484000000031
10
127.07240713224401
20
10.200484000000031
42
-0.29821662669832794
10
126.72871395512247
20
10.425483999999678
42
0.2982166266986464
0
LWPOLYLINE
5
268
100
AcDbEntity
8
0
100
AcDbPolyline
90
4
70
1
43
0.0
10
132.88306414525101
20
6.8689578547490102
10
131.20252385474907
20
6.8689578547490102
10
131.20252385474907
20
9.7994981452510093
10
132.88306414525101
20
9.7994981452510093
0
LWPOLYLINE
5
269
100
AcDbEntity
8
0
100
AcDbPolyline
90
21
70
1
43
0.0
10
200.29373293052299
20
12.150484000000031
10
195.85398199999997
20
12.150484000000016
42
-0.41421356237309503
10
195.47898199999995
20
12.525484000000031
10
195.47898199999995
20
13.595484000000031
10
193.84398211919998
20
13.595484000000035
42
-0.41421356237309503
10
193.64398211919996
20
13.79548400000003
10
193.64398211919993
20
15.49548400000003
42
-0.41421356237309503
10
193.84398211919998
20
15.695484000000061
10
195.47898199999995
20
15.695484000000031
10
195.47898199999995
20
16.400484000000031
10
203.60398200000003
20
16.400484000000031
42
-0.41421356237309503
10
206.72898200000003
20
13.275484000000031
10
206.72898200000003
20
13.015484000000033
10
208.3639818808
20
13.015484000000029
42
-0.41421356237319906
10
208.56398188080007
20
12.815484000000033
10
208.56398188080004
20
11.115484000000031
42
-0.41421356237319906
10
208.3639818808
20
10.91548400000007
10
206.72898200000003
20
10.915484000000031
10
206.72898200000003
20
10.200484000000031
10
203.27240713224401
20
10.200484000000042
42
-0.29821662669831533
10
202.9287139551225
20
10.425483999999667
42
0.29821662669865034
0
LWPOLYLINE
5
270
100
AcDbEntity
8
0
100
AcDbPolyline
90
21
70
1
43
0.0
10
66.943732930522955
20
12.150484000000031
10
62.50398199999993
20
12.150484000000025
42
-0.41421356237309503
10
62.128981999999922
20
12.525484000000031
10
62.128981999999915
20
13.595484000000031
10
60.493982119199934
20
13.595484000000027
42
-0.41421356237309503
10
60.293982119199931
20
13.79548400000003
10
60.293982119199903
20
15.49548400000003
42
-0.41421356237309503
10
60.493982119199934
20
15.695484000000061
10
62.128981999999915
20
15.695484000000031
10
62.128981999999915
20
16.400484000000031
10
70.253981999999993
20
16.400484000000031
42
-0.41421356237309503
10
73.378981999999993
20
13.275484000000031
10
73.378981999999993
20
13.015484000000033
10
75.013981880799975
20
13.015484000000036
42
-0.41421356237319906
10
75.213981880800048
20
12.815484000000033
10
75.213981880800006
20
11.115484000000031
42
-0.41421356237319906
10
75.013981880799975
20
10.91548400000007
10
73.378981999999993
20
10.915484000000031
10
73.378981999999993
20
10.200484000000031
10
69.92240713224399
20
10.200484000000031
42
-0.29821662669832943
10
69.578713955122453
20
10.425483999999681
42
0.2982166266986459
0
LWPOLYLINE
5
271
100
AcDbEntity
8
0
100
AcDbPolyline
90
4
70
1
43
0.0
10
188.35252385474911
20
6.8689578547490102
10
188.35252385474911
20
9.7994981452510093
10
190.03306414525105
20
9.7994981452510093
10
190.03306414525105
20
6.8689578547490102
0
LWPOLYLINE
5
272
100
AcDbEntity
8
0
100
AcDbPolyline
90
4
70
1
43
0.0
10
330.82882114788663
20
83.058579509649149
10
330.82882114788663
20
85.989119800151144
10
332.50936143838857
20
85.989119800151144
10
332.50936143838857
20
83.058579509649149
0
LWPOLYLINE
5
273
100
AcDbEntity
8
0
100
AcDbPolyline
90
88
70
1
43
0.0
10
11.147568865715897
20
-1.1535263257438477
42
0.063752615233769197
10
10.920805333333362
20
-1.0391444089079913
42
-0.31783724519578554
10
9.5874720000000089
20
0.84647367425614684
10
9.5874720000000089
20
1.8464736742561403
42
-0.41421356237309492
10
11.587472000000005
20
3.8464736742561358
10
13.95482352316559
20
3.8464736742561363
10
13.95482352316559
20
5.8461073144706024
10
25.023276300244319
20
5.8461073144706024
10
25.023276300244319
20
3.846473674256135
10
27.387472000000006
20
3.8464736742561345
42
-0.41421356237309387
10
29.38747200000001
20
1.8464736742561323
10
29.387472000000013
20
0.84647367425607944
42
-0.31783724519577661
10
28.054138666666702
20
-1.0391444089080353
42
0.063752615233739221
10
27.827375134284221
20
-1.1535263257438568
10
301.08747199999999
20
-1.1535263257439761
42
-0.41421356237309392
10
299.08747199999999
20
0.84647367425600917
10
299.08747199999999
20
2.8464736742560941
42
-0.41421356237309398
10
301.08747199999999
20
4.8464736742560834
10
301.91148179773802
20
4.8464736742560897
10
301.91148179773802
20
10.20048400000003
10
298.47240713224403
20
10.200484000000042
42
-0.29821662669831239
10
298.12871395512252
20
10.425483999999688
42
0.29821662669865467
10
295.49373293052304
20
12.150484000000031
10
291.05398200000002
20
12.150484000000022
42
-0.41421356237309159
10
290.67898199999996
20
12.525484000000031
10
290.67898199999996
20
13.595484000000031
10
289.0439821192
20
13.595484000000035
42
-0.41421356237319906
10
288.84398211920001
20
13.79548400000003
10
288.84398211919995
20
15.49548400000003
42
-0.41421356237310153
10
289.0439821192
20
15.695484000000061
10
290.67898199999996
20
15.695484000000031
10
290.67898199999996
20
16.400484000000031
10
298.80398200000008
20
16.40048400000002
42
-0.38353123701719616
10
301.91148179773802
20
13.605741485998905
10
317.23075413188002
20
13.605741485998905
42
-0.32284836299007907
10
317.09398211919995
20
13.795484000000034
10
317.09398211919995
20
15.49548400000003
42
-0.4142135623729975
10
317.2939821192
20
15.695484000000061
10
318.92898199999996
20
15.695484000000031
10
318.92898199999996
20
16.400484000000031
10
327.05398200000002
20
16.400483999999992
42
-0.41421356237310458
10
330.17898200000002
20
13.275484000000031
10
330.17898200000002
20
13.015484000000033
10
331.81398188080004
20
13.015483999999963
42
-0.41421356237326085
10
332.01398188080015
20
12.815484000000033
10
332.01398188080009
20
11.115484000000031
42
-0.41421356237340723
10
331.81398188080004
20
10.91548400000007
10
330.17898200000002
20
10.915484000000031
10
330.17898200000002
20
10.200484000000031
10
326.72240713224403
20
10.200483999999985
42
-0.2982166266983346
10
326.37871395512252
20
10.425483999999649
42
0.29821662669862758
10
323.74373293052304
20
12.150484000000016
10
319.30398200000002
20
12.150484000000022
42
-0.41421356237303608
10
318.92898199999996
20
12.525484000000031
10
318.92898199999996
20
13.595484000000031
10
318.887472
20
13.595484000000031
10
318.887472
20
4.8464736742560754
42
-0.41421356237311929
10
320.887472
20
2.8464736742560595
10
320.887472
20
0.84647367425597542
42
-0.4142135623730831
10
318.887472
20
-1.1535263257440229
10
388.38572606121181
20
-1.153526325744032
10
388.38572606121181
20
35.58901800000001
10
379.0306563802165
20
35.58901800000001
10
379.0306563802165
20
24.589817844453748
10
373.82338603060589
20
24.589817844453748
10
373.82338603060589
20
35.58901800000001
10
372.03890464543042
20
35.58901800000001
10
372.03890464543042
20
32.722329072810197
10
368.61662616471938
20
32.722329072810197
10
368.61662616471938
20
35.58901800000001
10
357.26104599999996
20
35.589018000000053
42
-0.41421356237310542
10
355.26104599999996
20
37.58901800000001
10
355.26104599999996
20
67.589018000000024
42
-0.41421356237309631
10
357.26104599999996
20
69.589018000000053
10
363.97999080375587
20
69.589018000000024
10
363.97999080375587
20
70.919372760746825
10
367.6598601378538
20
70.919372760746825
10
367.6598601378538
20
69.589018000000024
10
379.3618446202853
20
69.589018000000024
10
379.3618446202853
20
70.919372760746825
10
383.26250611442907
20
70.919372760746825
10
383.26250611442907
20
69.589018000000024
10
388.38572606121181
20
69.589018000000024
10
388.38572606121181
20
96.293529088547871
10
1.8857260612117699
20
96.293529088548055
42
0.41421356237308721
10
-0.6142739387881988
20
93.79352908854807
10
-0.61427393878819181
20
1.3464736742560923
42
0.41421356237309426
10
1.885726061211805
20
-1.1535263257438364
0
ENDSEC
0
SECTION
2
OBJECTS
0
DICTIONARY
5
C
100
AcDbDictionary
3
ACAD_GROUP
350
D
3
ACAD_MLINESTYLE
350
17
0
DICTIONARY
5
D
100
AcDbDictionary
0
DICTIONARY
5
1A
330
C
100
AcDbDictionary
0
DICTIONARY
5
17
100
AcDbDictionary
0
ENDSEC
0
EOF
