0
SECTION
2
HEADER
9
$INSUNITS
70
4
9
$ACADVER
1
AC1014
9
$HANDSEED
5
FFFF
0
ENDSEC
0
SECTION
2
TABLES
0
TABLE
2
VPORT
5
8
100
AcDbSymbolTable
0
ENDTAB
0
TABLE
2
LTYPE
5
5
100
AcDbSymbolTable
0
LTYPE
5
14
100
AcDbSymbolTableRecord
100
AcDbLinetypeTableRecord
2
BYBLOCK
70
0
0
LTYPE
5
15
100
AcDbSymbolTableRecord
100
AcDbLinetypeTableRecord
2
BYLAYER
70
0
0
ENDTAB
0
TABLE
2
LAYER
5
2
100
AcDbSymbolTable
70
2
0
LAYER
5
50
100
AcDbSymbolTableRecord
100
AcDbLayerTableRecord
2
0
70
0
6
CONTINUOUS
0
ENDTAB
0
TABLE
2
STYLE
5
3
100
AcDbSymbolTable
70
1
0
STYLE
5
11
100
AcDbSymbolTableRecord
100
AcDbTextStyleTableRecord
2
STANDARD
70
0
0
ENDTAB
0
TABLE
2
VIEW
5
6
100
AcDbSymbolTable
70
0
0
ENDTAB
0
TABLE
2
UCS
5
7
100
AcDbSymbolTable
70
0
0
ENDTAB
0
TABLE
2
APPID
5
9
100
AcDbSymbolTable
70
2
0
APPID
5
12
100
AcDbSymbolTableRecord
100
AcDbRegAppTableRecord
2
ACAD
70
0
0
ENDTAB
0
TABLE
2
DIMSTYLE
5
A
100
AcDbSymbolTable
70
1
0
ENDTAB
0
TABLE
2
BLOCK_RECORD
5
1
100
AcDbSymbolTable
70
1
0
BLOCK_RECORD
5
1F
100
AcDbSymbolTableRecord
100
AcDbBlockTableRecord
2
*MODEL_SPACE
0
BLOCK_RECORD
5
1B
100
AcDbSymbolTableRecord
100
AcDbBlockTableRecord
2
*PAPER_SPACE
0
ENDTAB
0
ENDSEC
0
SECTION
2
BLOCKS
0
BLOCK
5
20
100
AcDbEntity
100
AcDbBlockBegin
2
*MODEL_SPACE
0
ENDBLK
5
21
100
AcDbEntity
100
AcDbBlockEnd
0
BLOCK
5
1C
100
AcDbEntity
100
AcDbBlockBegin
2
*PAPER_SPACE
0
ENDBLK
5
1D
100
AcDbEntity
100
AcDbBlockEnd
0
ENDSEC
0
SECTION
2
ENTITIES
0
LWPOLYLINE
5
100
100
AcDbEntity
8
0
100
AcDbPolyline
90
8
70
1
43
0.0
10
140.82499999999999
20
35.075000000000003
42
0.41421356237309243
10
140.32499999999999
20
35.575000000000003
10
127.325
20
35.57500000000001
42
0.41421356237307161
10
126.82499999999999
20
35.075000000000003
10
126.82500000000002
20
22.074999999999999
42
0.41421356237309764
10
127.325
20
21.575000000000003
10
140.32499999999999
20
21.574999999999992
42
0.41421356237309503
10
140.82499999999999
20
22.074999999999999
0
LWPOLYLINE
5
101
100
AcDbEntity
8
0
100
AcDbPolyline
90
8
70
1
43
0.0
10
159.875
20
35.075000000000003
42
0.41421356237309243
10
159.375
20
35.575000000000003
10
146.375
20
35.57500000000001
42
0.41421356237307161
10
145.875
20
35.075000000000003
10
145.87500000000003
20
22.074999999999999
42
0.41421356237309764
10
146.375
20
21.575000000000003
10
159.375
20
21.574999999999992
42
0.41421356237309503
10
159.875
20
22.074999999999999
0
LWPOLYLINE
5
102
100
AcDbEntity
8
0
100
AcDbPolyline
90
8
70
1
43
0.0
10
102.72500000000001
20
35.075000000000003
42
0.41421356237309243
10
102.22499999999999
20
35.575000000000003
10
89.224999999999994
20
35.574999999999989
42
0.41421356237311324
10
88.725000000000009
20
35.075000000000003
10
88.724999999999994
20
22.074999999999999
42
0.41421356237309503
10
89.224999999999994
20
21.575000000000003
10
102.22499999999999
20
21.574999999999992
42
0.41421356237309503
10
102.72500000000001
20
22.074999999999999
0
LWPOLYLINE
5
103
100
AcDbEntity
8
0
100
AcDbPolyline
90
8
70
1
43
0.0
10
83.674999999999997
20
35.075000000000003
42
0.41421356237309764
10
83.175000000000011
20
35.574999999999996
10
70.174999999999997
20
35.575000000000003
42
0.41421356237309764
10
69.674999999999997
20
35.075000000000003
10
69.674999999999997
20
22.074999999999999
42
0.41421356237309764
10
70.174999999999997
20
21.575000000000003
10
83.175000000000011
20
21.57500000000001
42
0.41421356237309764
10
83.674999999999997
20
22.074999999999999
0
LWPOLYLINE
5
104
100
AcDbEntity
8
0
100
AcDbPolyline
90
8
70
1
43
0.0
10
330.92899999999992
20
54.125000000000007
42
0.4142135623730222
10
330.42899999999997
20
54.624999999999993
10
317.42899999999992
20
54.625
42
0.41421356237312623
10
316.92899999999992
20
54.125
10
316.92899999999992
20
41.125
42
0.41421356237312101
10
317.42899999999992
20
40.625
10
330.4289999999998
20
40.625
42
0.41421356237310542
10
330.92899999999992
20
41.125000000000114
0
LWPOLYLINE
5
105
100
AcDbEntity
8
0
100
AcDbPolyline
90
8
70
1
43
0.0
10
121.77499999999998
20
35.075000000000003
42
0.41421356237309764
10
121.27499999999999
20
35.574999999999996
10
108.27500000000001
20
35.57500000000001
42
0.41421356237309243
10
107.77500000000001
20
35.075000000000003
10
107.77500000000001
20
22.074999999999999
42
0.41421356237309503
10
108.27500000000001
20
21.575000000000003
10
121.27499999999999
20
21.574999999999992
42
0.41421356237307422
10
121.77500000000001
20
22.074999999999999
0
LWPOLYLINE
5
106
100
AcDbEntity
8
0
100
AcDbPolyline
90
8
70
1
43
0.0
10
165.42500000000001
20
35.57500000000001
42
0.41421356237313145
10
164.92500000000001
20
35.075000000000003
10
164.92500000000001
20
22.074999999999999
42
0.41421356237313406
10
165.42500000000001
20
21.574999999999992
10
178.42499999999998
20
21.574999999999992
42
0.41421356237313406
10
178.92499999999998
20
22.074999999999999
10
178.92499999999998
20
35.075000000000003
42
0.41421356237313145
10
178.42499999999998
20
35.57500000000001
0
LWPOLYLINE
5
107
100
AcDbEntity
8
0
100
AcDbPolyline
90
8
70
1
43
0.0
10
45.574999999999989
20
35.075000000000003
42
0.41421356237309503
10
45.074999999999996
20
35.575000000000003
10
32.074999999999996
20
35.575000000000003
42
0.41421356237309503
10
31.574999999999989
20
35.075000000000003
10
31.574999999999996
20
22.074999999999999
42
0.41421356237309503
10
32.074999999999996
20
21.575000000000003
10
45.074999999999996
20
21.574999999999992
42
0.41421356237309764
10
45.57500000000001
20
22.074999999999999
0
LWPOLYLINE
5
108
100
AcDbEntity
8
0
100
AcDbPolyline
90
8
70
1
43
0.0
10
236.07500000000002
20
35.075000000000003
42
0.41421356237313145
10
235.57500000000002
20
35.575000000000003
10
222.57499999999999
20
35.57500000000001
42
0.41421356237310025
10
222.07499999999999
20
35.075000000000003
10
222.07499999999999
20
22.074999999999999
42
0.41421356237310281
10
222.57499999999999
20
21.575000000000003
10
235.57500000000002
20
21.574999999999992
42
0.41421356237313406
10
236.07500000000002
20
22.074999999999999
0
LWPOLYLINE
5
109
100
AcDbEntity
8
0
100
AcDbPolyline
90
8
70
1
43
0.0
10
278.9375
20
35.075000000000003
42
0.41421356237310025
10
278.4375
20
35.575000000000017
10
265.4375
20
35.57500000000001
42
0.41421356237313145
10
264.9375
20
35.075000000000003
10
264.9375
20
22.074999999999999
42
0.41421356237313406
10
265.4375
20
21.575000000000003
10
278.4375
20
21.575000000000028
42
0.41421356237309764
10
278.9375
20
22.074999999999999
0
LWPOLYLINE
5
110
100
AcDbEntity
8
0
100
AcDbPolyline
90
8
70
1
43
0.0
10
289.25
20
35.574999999999974
42
0.41421356237309764
10
288.75
20
35.075000000000003
10
288.74999999999994
20
22.074999999999999
42
0.41421356237310281
10
289.25
20
21.574999999999992
10
302.25
20
21.574999999999992
42
0.41421356237313406
10
302.75
20
22.074999999999999
10
302.75
20
35.075000000000003
42
0.41421356237313145
10
302.25
20
35.57500000000001
0
LWPOLYLINE
5
111
100
AcDbEntity
8
0
100
AcDbPolyline
90
8
70
1
43
0.0
10
197.97500000000002
20
35.075000000000003
42
0.41421356237310025
10
197.47500000000002
20
35.575000000000017
10
184.47500000000002
20
35.57500000000001
42
0.41421356237313145
10
183.97500000000002
20
35.075000000000003
10
183.97500000000002
20
22.074999999999999
42
0.41421356237313406
10
184.47500000000002
20
21.575000000000003
10
197.47500000000002
20
21.574999999999992
42
0.41421356237310281
10
197.97500000000002
20
22.074999999999999
0
LWPOLYLINE
5
112
100
AcDbEntity
8
0
100
AcDbPolyline
90
8
70
1
43
0.0
10
217.02500000000003
20
35.075000000000003
42
0.41421356237310025
10
216.52500000000003
20
35.575000000000017
10
203.52500000000003
20
35.57500000000001
42
0.41421356237313145
10
203.02500000000003
20
35.075000000000003
10
203.02500000000003
20
22.074999999999999
42
0.41421356237313406
10
203.52500000000003
20
21.575000000000003
10
216.52500000000003
20
21.575000000000028
42
0.41421356237309764
10
217.02500000000001
20
22.074999999999999
0
LWPOLYLINE
5
113
100
AcDbEntity
8
0
100
AcDbPolyline
90
8
70
1
43
0.0
10
241.625
20
35.57500000000001
42
0.41421356237310025
10
241.125
20
35.075000000000003
10
241.125
20
22.074999999999999
42
0.41421356237310281
10
241.625
20
21.574999999999992
10
254.62500000000003
20
21.574999999999992
42
0.41421356237313406
10
255.12500000000003
20
22.074999999999999
10
255.12500000000003
20
35.075000000000003
42
0.41421356237313145
10
254.62500000000003
20
35.57500000000001
0
LWPOLYLINE
5
114
100
AcDbEntity
8
0
100
AcDbPolyline
90
8
70
1
43
0.0
10
36.837499999999991
20
54.625
42
0.41421356237309503
10
36.337499999999999
20
54.125000000000007
10
36.337499999999999
20
41.125
42
0.41421356237309764
10
36.837499999999999
20
40.625
10
49.837499999999999
20
40.625
42
0.41421356237309503
10
50.337499999999991
20
41.125
10
50.337499999999991
20
54.125000000000007
42
0.41421356237308982
10
49.837500000000006
20
54.625
0
LWPOLYLINE
5
115
100
AcDbEntity
8
0
100
AcDbPolyline
90
8
70
1
43
0.0
10
69.387499999999989
20
54.125000000000007
42
0.41421356237309503
10
68.887499999999989
20
54.625
10
55.887500000000003
20
54.625
42
0.41421356237309503
10
55.387500000000003
20
54.125000000000007
10
55.387500000000003
20
41.125
42
0.41421356237310025
10
55.88750000000001
20
40.625
10
68.887499999999989
20
40.625
42
0.41421356237309503
10
69.387499999999989
20
41.125
0
LWPOLYLINE
5
116
100
AcDbEntity
8
0
100
AcDbPolyline
90
8
70
1
43
0.0
10
10.643749999999994
20
54.625
42
0.41421356237309503
10
10.143749999999995
20
54.125000000000007
10
10.143749999999995
20
41.125
42
0.41421356237309892
10
10.643750000000001
20
40.625
10
23.643749999999994
20
40.625
42
0.41421356237309503
10
24.143749999999997
20
41.125
10
24.143749999999994
20
54.125000000000007
42
0.41421356237309764
10
23.64374999999999
20
54.625
0
LWPOLYLINE
5
117
100
AcDbEntity
8
0
100
AcDbPolyline
90
8
70
1
43
0.0
10
113.03750000000001
20
54.625
42
0.41421356237310025
10
112.53749999999999
20
54.125
10
112.53749999999999
20
41.125
42
0.41421356237309503
10
113.03750000000001
20
40.624999999999993
10
126.03749999999999
20
40.624999999999993
42
0.41421356237307422
10
126.53750000000001
20
41.125
10
126.53749999999999
20
54.125000000000007
42
0.41421356237310025
10
126.03749999999999
20
54.624999999999993
0
LWPOLYLINE
5
118
100
AcDbEntity
8
0
100
AcDbPolyline
90
8
70
1
43
0.0
10
88.4375
20
54.125000000000007
42
0.41421356237308982
10
87.937500000000028
20
54.625
10
74.9375
20
54.625
42
0.41421356237309503
10
74.4375
20
54.125000000000007
10
74.4375
20
41.125
42
0.41421356237309503
10
74.9375
20
40.625
10
87.937500000000014
20
40.624999999999993
42
0.41421356237307422
10
88.437500000000014
20
41.125
0
LWPOLYLINE
5
119
100
AcDbEntity
8
0
100
AcDbPolyline
90
8
70
1
43
0.0
10
107.48750000000001
20
54.125000000000007
42
0.41421356237309503
10
106.98750000000001
20
54.625000000000014
10
93.987499999999997
20
54.624999999999993
42
0.41421356237311585
10
93.487500000000011
20
54.125000000000007
10
93.487499999999983
20
41.125
42
0.41421356237309503
10
93.987499999999997
20
40.625
10
106.98750000000001
20
40.624999999999993
42
0.41421356237309503
10
107.48750000000001
20
41.125
0
LWPOLYLINE
5
120
100
AcDbEntity
8
0
100
AcDbPolyline
90
8
70
1
43
0.0
10
302.75
20
54.125000000000007
42
0.41421356237313145
10
302.25
20
54.625
10
289.25
20
54.624999999999979
42
0.41421356237310025
10
288.75
20
54.125000000000007
10
288.74999999999994
20
41.125
42
0.41421356237312101
10
289.25
20
40.625
10
302.25
20
40.624999999999993
42
0.41421356237313145
10
302.75
20
41.125
0
LWPOLYLINE
5
121
100
AcDbEntity
8
0
100
AcDbPolyline
90
8
70
1
43
0.0
10
65.412499999999994
20
73.674999999999997
42
0.41421356237309503
10
64.912499999999994
20
73.174999999999997
10
64.912499999999994
20
60.174999999999997
42
0.41421356237310542
10
65.412499999999994
20
59.675000000000004
10
78.412499999999994
20
59.675000000000004
42
0.41421356237309503
10
78.912499999999994
20
60.174999999999997
10
78.912499999999994
20
73.174999999999997
42
0.41421356237309503
10
78.412499999999994
20
73.674999999999997
0
LWPOLYLINE
5
122
100
AcDbEntity
8
0
100
AcDbPolyline
90
8
70
1
43
0.0
10
97.962500000000006
20
73.174999999999997
42
0.41421356237309503
10
97.462500000000006
20
73.675000000000011
10
84.462499999999991
20
73.675000000000011
42
0.41421356237309503
10
83.962499999999977
20
73.174999999999997
10
83.962499999999977
20
60.174999999999997
42
0.41421356237310025
10
84.462499999999991
20
59.675000000000004
10
97.462500000000006
20
59.674999999999997
42
0.41421356237310025
10
97.962500000000006
20
60.174999999999997
0
LWPOLYLINE
5
123
100
AcDbEntity
8
0
100
AcDbPolyline
90
8
70
1
43
0.0
10
136.0625
20
73.174999999999997
42
0.41421356237308982
10
135.56250000000003
20
73.674999999999997
10
122.56250000000001
20
73.675000000000011
42
0.41421356237309503
10
122.0625
20
73.174999999999997
10
122.0625
20
60.174999999999997
42
0.41421356237310025
10
122.56250000000001
20
59.675000000000004
10
135.5625
20
59.674999999999997
42
0.41421356237307944
10
136.0625
20
60.174999999999997
0
LWPOLYLINE
5
124
100
AcDbEntity
8
0
100
AcDbPolyline
90
8
70
1
43
0.0
10
117.01249999999999
20
73.174999999999997
42
0.41421356237308982
10
116.51250000000002
20
73.674999999999997
10
103.5125
20
73.675000000000011
42
0.41421356237309503
10
103.01249999999999
20
73.174999999999997
10
103.01249999999999
20
60.174999999999997
42
0.41421356237310025
10
103.5125
20
59.675000000000004
10
116.51249999999999
20
59.674999999999997
42
0.41421356237307944
10
117.0125
20
60.174999999999997
0
LWPOLYLINE
5
125
100
AcDbEntity
8
0
100
AcDbPolyline
90
8
70
1
43
0.0
10
212.26249999999999
20
73.174999999999997
42
0.41421356237313145
10
211.76249999999999
20
73.674999999999997
10
198.76249999999999
20
73.674999999999969
42
0.41421356237310025
10
198.26250000000002
20
73.174999999999997
10
198.26249999999999
20
60.174999999999997
42
0.41421356237312623
10
198.76249999999999
20
59.675000000000004
10
211.76249999999999
20
59.674999999999997
42
0.41421356237313667
10
212.26249999999999
20
60.174999999999997
0
LWPOLYLINE
5
126
100
AcDbEntity
8
0
100
AcDbPolyline
90
8
70
1
43
0.0
10
46.362499999999997
20
73.674999999999997
42
0.41421356237309503
10
45.862499999999997
20
73.174999999999997
10
45.862499999999997
20
60.174999999999997
42
0.41421356237310025
10
46.362500000000004
20
59.675000000000004
10
59.362500000000004
20
59.675000000000004
42
0.41421356237309503
10
59.862499999999997
20
60.174999999999997
10
59.862499999999997
20
73.174999999999997
42
0.41421356237308982
10
59.362500000000011
20
73.674999999999997
0
LWPOLYLINE
5
127
100
AcDbEntity
8
0
100
AcDbPolyline
90
8
70
1
43
0.0
10
244.00625000000002
20
73.675000000000011
42
0.41421356237313145
10
243.50625000000002
20
73.174999999999997
10
243.50625000000002
20
60.174999999999997
42
0.41421356237313667
10
244.00625000000002
20
59.674999999999997
10
257.00625000000002
20
59.674999999999997
42
0.41421356237312623
10
257.50625000000002
20
60.174999999999997
10
257.50625000000002
20
73.174999999999997
42
0.41421356237312101
10
257.00625000000002
20
73.675000000000011
0
LWPOLYLINE
5
128
100
AcDbEntity
8
0
100
AcDbPolyline
90
8
70
1
43
0.0
10
231.3125
20
73.174999999999997
42
0.41421356237313145
10
230.8125
20
73.674999999999997
10
217.8125
20
73.674999999999969
42
0.41421356237310025
10
217.31250000000003
20
73.174999999999997
10
217.3125
20
60.174999999999997
42
0.41421356237312623
10
217.8125
20
59.675000000000004
10
230.8125
20
59.674999999999997
42
0.41421356237313667
10
231.3125
20
60.174999999999997
0
LWPOLYLINE
5
129
100
AcDbEntity
8
0
100
AcDbPolyline
90
8
70
1
43
0.0
10
174.16250000000002
20
73.174999999999997
42
0.41421356237312101
10
173.66250000000002
20
73.674999999999983
10
160.66249999999999
20
73.675000000000011
42
0.41421356237313145
10
160.16249999999999
20
73.174999999999997
10
160.16249999999999
20
60.174999999999997
42
0.41421356237313667
10
160.66249999999999
20
59.675000000000004
10
173.66250000000002
20
59.674999999999997
42
0.41421356237312623
10
174.16250000000002
20
60.174999999999997
0
LWPOLYLINE
5
130
100
AcDbEntity
8
0
100
AcDbPolyline
90
8
70
1
43
0.0
10
193.21250000000003
20
73.174999999999997
42
0.41421356237312101
10
192.71250000000003
20
73.674999999999983
10
179.71250000000001
20
73.675000000000011
42
0.41421356237313145
10
179.21250000000001
20
73.174999999999997
10
179.21250000000001
20
60.174999999999997
42
0.41421356237313667
10
179.71250000000001
20
59.675000000000004
10
192.71250000000003
20
59.674999999999997
42
0.41421356237312623
10
193.21250000000003
20
60.174999999999997
0
LWPOLYLINE
5
131
100
AcDbEntity
8
0
100
AcDbPolyline
90
8
70
1
43
0.0
10
283.70000000000005
20
73.174999999999997
42
0.41421356237313145
10
283.20000000000005
20
73.674999999999997
10
270.20000000000005
20
73.675000000000011
42
0.41421356237312101
10
269.70000000000005
20
73.174999999999997
10
269.70000000000005
20
60.174999999999997
42
0.41421356237312623
10
270.20000000000005
20
59.675000000000004
10
283.20000000000005
20
59.674999999999997
42
0.41421356237313667
10
283.70000000000005
20
60.174999999999997
0
LWPOLYLINE
5
132
100
AcDbEntity
8
0
100
AcDbPolyline
90
8
70
1
43
0.0
10
53.506250000000001
20
92.725000000000009
42
0.41421356237309503
10
53.006249999999994
20
92.224999999999994
10
53.006250000000001
20
79.224999999999994
42
0.41421356237310025
10
53.506250000000009
20
78.724999999999994
10
66.506249999999994
20
78.724999999999994
42
0.41421356237310542
10
67.006249999999994
20
79.224999999999994
10
67.006249999999994
20
92.224999999999994
42
0.41421356237311063
10
66.506249999999994
20
92.724999999999994
0
LWPOLYLINE
5
133
100
AcDbEntity
8
0
100
AcDbPolyline
90
8
70
1
43
0.0
10
155.11250000000001
20
73.174999999999997
42
0.41421356237309503
10
154.61250000000001
20
73.675000000000011
10
141.61249999999998
20
73.675000000000011
42
0.41421356237309503
10
141.11249999999998
20
73.174999999999997
10
141.11249999999998
20
60.174999999999997
42
0.41421356237310025
10
141.61249999999998
20
59.675000000000004
10
154.61250000000001
20
59.674999999999997
42
0.41421356237310025
10
155.11250000000001
20
60.174999999999997
0
LWPOLYLINE
5
134
100
AcDbEntity
8
0
100
AcDbPolyline
90
8
70
1
43
0.0
10
302.75
20
73.174999999999997
42
0.41421356237313145
10
302.25
20
73.674999999999997
10
289.25
20
73.674999999999969
42
0.41421356237310025
10
288.75
20
73.174999999999997
10
288.74999999999994
20
60.174999999999997
42
0.41421356237312623
10
289.25
20
59.675000000000004
10
302.25
20
59.674999999999997
42
0.41421356237313667
10
302.75
20
60.174999999999997
0
LWPOLYLINE
5
135
100
AcDbEntity
8
0
100
AcDbPolyline
90
8
70
1
43
0.0
10
43.193750000000001
20
92.224999999999994
42
0.41421356237309503
10
42.693749999999994
20
92.725000000000009
10
29.693749999999994
20
92.725000000000009
42
0.41421356237309243
10
29.193749999999987
20
92.224999999999994
10
29.193749999999994
20
79.224999999999994
42
0.41421356237309764
10
29.693749999999994
20
78.724999999999994
10
42.693749999999994
20
78.724999999999994
42
0.41421356237309503
10
43.193749999999994
20
79.224999999999994
0
LWPOLYLINE
5
136
100
AcDbEntity
8
0
100
AcDbPolyline
90
8
70
1
43
0.0
10
19.381250000000001
20
92.224999999999994
42
0.41421356237309631
10
18.881249999999994
20
92.725000000000009
10
5.8812499999999943
20
92.725000000000009
42
0.41421356237309437
10
5.3812499999999908
20
92.224999999999994
10
5.3812499999999961
20
79.224999999999994
42
0.41421356237309959
10
5.8812499999999979
20
78.724999999999994
10
18.881249999999994
20
78.724999999999994
42
0.41421356237309764
10
19.381249999999994
20
79.224999999999994
0
LWPOLYLINE
5
137
100
AcDbEntity
8
0
100
AcDbPolyline
90
8
70
1
43
0.0
10
16.999999999999996
20
16.024999999999999
42
0.41421356237309243
10
16.499999999999993
20
16.525000000000002
10
3.4999999999999942
20
16.524999999999999
42
0.41421356237309243
10
2.9999999999999893
20
16.024999999999999
10
2.9999999999999942
20
3.0249999999999999
42
0.4142135623730957
10
3.4999999999999964
20
2.5249999999999995
10
16.499999999999993
20
2.5249999999999995
42
0.41421356237309437
10
16.999999999999993
20
3.0250000000000021
0
LWPOLYLINE
5
138
100
AcDbEntity
8
0
100
AcDbPolyline
90
8
70
1
43
0.0
10
55.099999999999994
20
16.024999999999999
42
0.41421356237309503
10
54.600000000000001
20
16.524999999999995
10
41.599999999999994
20
16.524999999999999
42
0.41421356237309503
10
41.099999999999994
20
16.024999999999999
10
41.099999999999994
20
3.0249999999999999
42
0.41421356237309959
10
41.600000000000001
20
2.5249999999999995
10
54.600000000000001
20
2.5250000000000017
42
0.4142135623730957
10
55.099999999999994
20
3.0250000000000021
0
LWPOLYLINE
5
139
100
AcDbEntity
8
0
100
AcDbPolyline
90
8
70
1
43
0.0
10
74.149999999999991
20
16.024999999999999
42
0.41421356237309503
10
73.649999999999991
20
16.524999999999995
10
60.649999999999991
20
16.524999999999999
42
0.41421356237309764
10
60.150000000000006
20
16.024999999999999
10
60.149999999999999
20
3.0249999999999999
42
0.41421356237309698
10
60.649999999999991
20
2.5249999999999995
10
73.649999999999991
20
2.5249999999999999
42
0.41421356237309404
10
74.149999999999991
20
3.0249999999999977
0
LWPOLYLINE
5
140
100
AcDbEntity
8
0
100
AcDbPolyline
90
8
70
1
43
0.0
10
155.90000000000001
20
16.525000000000006
42
0.41421356237307549
10
155.40000000000001
20
16.024999999999999
10
155.40000000000001
20
3.0249999999999999
42
0.41421356237307355
10
155.90000000000001
20
2.524999999999995
10
168.90000000000001
20
2.5249999999999999
42
0.41421356237310186
10
169.40000000000001
20
3.0250000000000066
10
169.40000000000001
20
16.024999999999999
42
0.41421356237312235
10
168.90000000000001
20
16.525000000000006
0
LWPOLYLINE
5
141
100
AcDbEntity
8
0
100
AcDbPolyline
90
8
70
1
43
0.0
10
131.29999999999998
20
16.024999999999999
42
0.41421356237309631
10
130.79999999999998
20
16.525000000000009
10
117.80000000000001
20
16.525000000000006
42
0.41421356237309631
10
117.30000000000001
20
16.024999999999999
10
117.30000000000001
20
3.0249999999999999
42
0.41421356237309437
10
117.80000000000001
20
2.5249999999999995
10
130.79999999999998
20
2.5249999999999999
42
0.4142135623730947
10
131.29999999999998
20
3.0250000000000066
0
LWPOLYLINE
5
142
100
AcDbEntity
8
0
100
AcDbPolyline
90
8
70
1
43
0.0
10
79.699999999999989
20
16.524999999999999
42
0.41421356237309764
10
79.200000000000003
20
16.024999999999999
10
79.199999999999989
20
3.0249999999999999
42
0.41421356237309698
10
79.699999999999989
20
2.5250000000000039
10
92.699999999999974
20
2.5249999999999928
42
0.41421356237307488
10
93.199999999999989
20
3.0250000000000021
10
93.200000000000003
20
16.024999999999999
42
0.41421356237309631
10
92.699999999999989
20
16.525000000000006
0
LWPOLYLINE
5
143
100
AcDbEntity
8
0
100
AcDbPolyline
90
8
70
1
43
0.0
10
150.34999999999999
20
16.024999999999999
42
0.41421356237309631
10
149.84999999999999
20
16.525000000000009
10
136.84999999999999
20
16.525000000000006
42
0.41421356237307549
10
136.34999999999999
20
16.024999999999999
10
136.34999999999999
20
3.0249999999999999
42
0.41421356237307355
10
136.84999999999999
20
2.5249999999999995
10
149.84999999999999
20
2.5249999999999999
42
0.4142135623730947
10
150.34999999999999
20
3.0250000000000066
0
LWPOLYLINE
5
144
100
AcDbEntity
8
0
100
AcDbPolyline
90
8
70
1
43
0.0
10
207.50000000000003
20
92.224999999999994
42
0.41421356237310542
10
207.00000000000003
20
92.725000000000023
10
194.00000000000003
20
92.725000000000009
42
0.41421356237313667
10
193.5
20
92.224999999999994
10
193.5
20
79.224999999999994
42
0.41421356237313667
10
194.00000000000003
20
78.724999999999994
10
207.00000000000003
20
78.724999999999994
42
0.41421356237312623
10
207.50000000000003
20
79.224999999999994
0
LWPOLYLINE
5
145
100
AcDbEntity
8
0
100
AcDbPolyline
90
8
70
1
43
0.0
10
226.55000000000001
20
92.224999999999994
42
0.41421356237313667
10
226.05000000000001
20
92.725000000000009
10
213.05000000000001
20
92.725000000000009
42
0.41421356237310542
10
212.54999999999998
20
92.224999999999994
10
212.54999999999998
20
79.224999999999994
42
0.41421356237312623
10
213.05000000000001
20
78.724999999999994
10
226.05000000000001
20
78.724999999999994
42
0.41421356237313667
10
226.55000000000001
20
79.224999999999994
0
LWPOLYLINE
5
146
100
AcDbEntity
8
0
100
AcDbPolyline
90
8
70
1
43
0.0
10
283.70000000000005
20
92.224999999999994
42
0.41421356237313667
10
283.20000000000005
20
92.725000000000009
10
270.20000000000005
20
92.725000000000009
42
0.41421356237310542
10
269.70000000000005
20
92.224999999999994
10
269.70000000000005
20
79.224999999999994
42
0.41421356237312623
10
270.20000000000005
20
78.724999999999994
10
283.20000000000005
20
78.724999999999994
42
0.41421356237313667
10
283.70000000000005
20
79.224999999999994
0
LWPOLYLINE
5
147
100
AcDbEntity
8
0
100
AcDbPolyline
90
8
70
1
43
0.0
10
330.42899999999975
20
59.675000000000004
42
0.41421356237310025
10
330.92899999999986
20
60.175000000000118
10
330.92899999999986
20
73.174999999999997
42
0.4142135623730222
10
330.42899999999986
20
73.674999999999969
10
317.42899999999992
20
73.675000000000011
42
0.41421356237312101
10
316.92899999999992
20
73.174999999999997
10
316.92899999999997
20
60.17499999999999
42
0.41421356237310025
10
317.42899999999992
20
59.675000000000018
0
LWPOLYLINE
5
148
100
AcDbEntity
8
0
100
AcDbPolyline
90
8
70
1
43
0.0
10
302.75
20
92.224999999999994
42
0.41421356237313667
10
302.25
20
92.725000000000009
10
289.25
20
92.724999999999966
42
0.41421356237309503
10
288.75
20
92.224999999999994
10
288.74999999999994
20
79.224999999999994
42
0.41421356237312623
10
289.25
20
78.724999999999994
10
302.25
20
78.724999999999994
42
0.41421356237313667
10
302.75
20
79.224999999999994
0
LWPOLYLINE
5
149
100
AcDbEntity
8
0
100
AcDbPolyline
90
8
70
1
43
0.0
10
330.42899999999986
20
21.574999999999992
42
0.41421356237310281
10
330.92899999999997
20
22.075000000000106
10
330.92899999999997
20
35.074999999999989
42
0.4142135623730222
10
330.42900000000003
20
35.57499999999996
10
317.42899999999997
20
35.574999999999989
42
0.41421356237310025
10
316.92899999999997
20
35.074999999999989
10
316.92899999999997
20
22.074999999999992
42
0.41421356237310281
10
317.42899999999997
20
21.574999999999985
0
LWPOLYLINE
5
150
100
AcDbEntity
8
0
100
AcDbPolyline
90
8
70
1
43
0.0
10
245.60000000000002
20
92.224999999999994
42
0.41421356237313667
10
245.10000000000002
20
92.725000000000009
10
232.10000000000002
20
92.725000000000009
42
0.41421356237310542
10
231.59999999999999
20
92.224999999999994
10
231.59999999999999
20
79.224999999999994
42
0.41421356237312623
10
232.10000000000002
20
78.724999999999994
10
245.10000000000002
20
78.724999999999994
42
0.41421356237313667
10
245.60000000000002
20
79.224999999999994
0
LWPOLYLINE
5
151
100
AcDbEntity
8
0
100
AcDbPolyline
90
8
70
1
43
0.0
10
330.92899999999997
20
16.024999999999991
42
0.41421356237301959
10
330.42900000000003
20
16.524999999999977
10
317.42899999999997
20
16.524999999999995
42
0.41421356237312362
10
316.92899999999997
20
16.024999999999988
10
316.92899999999997
20
3.024999999999991
42
0.41421356237310153
10
317.42899999999997
20
2.524999999999995
10
330.42899999999986
20
2.5249999999999928
42
0.41421356237310414
10
330.92899999999997
20
3.0250000000001087
0
LWPOLYLINE
5
152
100
AcDbEntity
8
0
100
AcDbPolyline
90
8
70
1
43
0.0
10
245.60000000000002
20
16.024999999999999
42
0.41421356237313406
10
245.10000000000002
20
16.525000000000002
10
232.10000000000002
20
16.525000000000006
42
0.41421356237312362
10
231.59999999999999
20
16.024999999999999
10
231.59999999999999
20
3.0249999999999999
42
0.41421356237310153
10
232.10000000000002
20
2.5249999999999995
10
245.10000000000002
20
2.5249999999999999
42
0.41421356237313306
10
245.60000000000002
20
3.0250000000000066
0
LWPOLYLINE
5
153
100
AcDbEntity
8
0
100
AcDbPolyline
90
8
70
1
43
0.0
10
21.762499999999996
20
35.075000000000003
42
0.41421356237309503
10
21.262499999999996
20
35.575000000000003
10
8.2624999999999957
20
35.575000000000003
42
0.41421356237309631
10
7.7624999999999922
20
35.075000000000003
10
7.7624999999999966
20
22.074999999999999
42
0.41421356237309892
10
8.2624999999999993
20
21.575000000000003
10
21.262499999999996
20
21.575000000000003
42
0.41421356237309503
10
21.762499999999996
20
22.074999999999999
0
CIRCLE
5
154
100
AcDbEntity
8
0
100
AcDbCircle
10
171.74575000000002
20
15.461999999999989
30
0
40
0.85000000000000853
210
0
220
0
230
1
0
LWPOLYLINE
5
155
100
AcDbEntity
8
0
100
AcDbPolyline
90
8
70
1
43
0.0
10
51.125
20
35.575000000000003
42
0.41421356237309503
10
50.625
20
35.075000000000003
10
50.625
20
22.074999999999999
42
0.41421356237310025
10
51.125000000000007
20
21.575000000000003
10
64.125
20
21.575000000000003
42
0.41421356237309764
10
64.625
20
22.074999999999999
10
64.625
20
35.075000000000003
42
0.41421356237309764
10
64.125
20
35.575000000000003
0
LWPOLYLINE
5
156
100
AcDbEntity
8
0
100
AcDbPolyline
90
8
70
1
43
0.0
10
240.83750000000003
20
54.125000000000007
42
0.41421356237313145
10
240.33750000000001
20
54.625
10
227.33750000000001
20
54.625000000000014
42
0.41421356237312101
10
226.83750000000001
20
54.125000000000007
10
226.83750000000001
20
41.125
42
0.41421356237312101
10
227.33750000000001
20
40.625
10
240.33750000000001
20
40.624999999999993
42
0.41421356237313145
10
240.83750000000003
20
41.125
0
LWPOLYLINE
5
157
100
AcDbEntity
8
0
100
AcDbPolyline
90
8
70
1
43
0.0
10
221.78750000000002
20
54.125000000000007
42
0.41421356237313145
10
221.28749999999999
20
54.625
10
208.28750000000002
20
54.625000000000014
42
0.41421356237313145
10
207.78750000000002
20
54.125000000000007
10
207.78749999999999
20
41.125
42
0.41421356237312101
10
208.28749999999999
20
40.625
10
221.28749999999999
20
40.624999999999993
42
0.41421356237313145
10
221.78750000000002
20
41.125
0
LWPOLYLINE
5
158
100
AcDbEntity
8
0
100
AcDbPolyline
90
8
70
1
43
0.0
10
302.75
20
16.024999999999999
42
0.41421356237313406
10
302.25
20
16.525000000000002
10
289.25
20
16.52499999999997
42
0.41421356237309631
10
288.75
20
16.024999999999999
10
288.74999999999994
20
3.0249999999999999
42
0.41421356237310153
10
289.25
20
2.524999999999995
10
302.25
20
2.5249999999999928
42
0.41421356237313406
10
302.75
20
3.0250000000000021
0
LWPOLYLINE
5
159
100
AcDbEntity
8
0
100
AcDbPolyline
90
8
70
1
43
0.0
10
202.73750000000001
20
54.125000000000007
42
0.41421356237313145
10
202.23749999999998
20
54.625
10
189.23749999999998
20
54.625
42
0.41421356237312623
10
188.73749999999998
20
54.125
10
188.73749999999998
20
41.125
42
0.41421356237312101
10
189.23749999999998
20
40.625
10
202.23749999999998
20
40.624999999999993
42
0.41421356237313145
10
202.73750000000001
20
41.125
0
CIRCLE
5
160
100
AcDbEntity
8
0
100
AcDbCircle
10
246.358
20
48.717000000000006
30
0
40
1.6499999999999915
210
0
220
0
230
1
0
LWPOLYLINE
5
161
100
AcDbEntity
8
0
100
AcDbPolyline
90
8
70
1
43
0.0
10
316.92899999999992
20
79.225000000000009
42
0.41421356237312101
10
317.42899999999992
20
78.725000000000023
10
330.4289999999998
20
78.725000000000009
42
0.41421356237310542
10
330.92899999999992
20
79.225000000000122
10
330.92899999999997
20
92.224999999999994
42
0.41421356237309503
10
330.42899999999997
20
92.725000000000009
10
317.42899999999992
20
92.725000000000009
42
0.41421356237310542
10
316.92899999999992
20
92.224999999999994
0
LWPOLYLINE
5
162
100
AcDbEntity
8
0
100
AcDbPolyline
90
8
70
1
43
0.0
10
91.477749999999972
20
88.030999999999949
42
0.41421356237309503
10
90.477749999999986
20
89.030999999999949
10
87.477749999999986
20
89.030999999999949
42
0.41421356237309503
10
86.477749999999986
20
88.030999999999949
10
86.477749999999958
20
82.030999999999949
42
0.41421356237309503
10
87.477749999999958
20
81.030999999999963
10
90.47775
20
81.030999999999963
42
0.41421356237309503
10
91.477749999999986
20
82.030999999999949
0
LWPOLYLINE
5
163
100
AcDbEntity
8
0
100
AcDbPolyline
90
8
70
1
43
0.0
10
176.20374999999999
20
88.030999999999949
42
0.41421356237307422
10
175.20374999999999
20
89.030999999999963
10
172.20375000000001
20
89.030999999999949
42
0.41421356237310025
10
171.20375000000001
20
88.030999999999949
10
171.20374999999999
20
82.030999999999949
42
0.41421356237307944
10
172.20375000000001
20
81.030999999999963
10
175.20374999999999
20
81.030999999999963
42
0.41421356237310542
10
176.20374999999996
20
82.030999999999949
0
LWPOLYLINE
5
164
100
AcDbEntity
8
0
100
AcDbPolyline
90
8
70
1
43
0.0
10
145.58750000000001
20
54.125000000000007
42
0.41421356237308982
10
145.08750000000003
20
54.625
10
132.08750000000003
20
54.625000000000014
42
0.41421356237309503
10
131.58750000000001
20
54.125000000000007
10
131.58750000000001
20
41.125
42
0.41421356237309503
10
132.08750000000003
20
40.625
10
145.08750000000001
20
40.624999999999993
42
0.41421356237307422
10
145.58750000000001
20
41.125
0
LWPOLYLINE
5
165
100
AcDbEntity
8
0
100
AcDbPolyline
90
8
70
1
43
0.0
10
112.25000000000001
20
16.024999999999999
42
0.41421356237309503
10
111.75
20
16.525000000000006
10
98.75
20
16.524999999999999
42
0.41421356237309631
10
98.25
20
16.024999999999991
10
98.25
20
3.0249999999999999
42
0.41421356237309437
10
98.75
20
2.5249999999999995
10
111.75
20
2.5249999999999999
42
0.4142135623730947
10
112.25000000000001
20
3.0250000000000066
0
LWPOLYLINE
5
166
100
AcDbEntity
8
0
100
AcDbPolyline
90
8
70
1
43
0.0
10
183.68750000000003
20
54.125000000000007
42
0.41421356237312101
10
183.1875
20
54.624999999999986
10
170.1875
20
54.625000000000014
42
0.41421356237313145
10
169.6875
20
54.125000000000007
10
169.6875
20
41.125
42
0.41421356237313145
10
170.1875
20
40.625
10
183.1875
20
40.624999999999993
42
0.41421356237312101
10
183.68750000000003
20
41.125
0
CIRCLE
5
167
100
AcDbEntity
8
0
100
AcDbCircle
10
90.584500000000006
20
42.169000000000011
30
0
40
1.6500000000000092
210
0
220
0
230
1
0
LWPOLYLINE
5
168
100
AcDbEntity
8
0
100
AcDbPolyline
90
8
70
1
43
0.0
10
151.13749999999999
20
54.625
42
0.41421356237310025
10
150.63749999999999
20
54.125
10
150.63749999999999
20
41.125
42
0.41421356237309503
10
151.13749999999999
20
40.624999999999993
10
164.13749999999999
20
40.625
42
0.41421356237312623
10
164.63750000000002
20
41.125000000000007
10
164.63750000000002
20
54.125000000000007
42
0.41421356237312101
10
164.13749999999999
20
54.625000000000014
0
CIRCLE
5
169
100
AcDbEntity
8
0
100
AcDbCircle
10
309.85900000000004
20
68.759
30
0
40
1.6499999999999915
210
0
220
0
230
1
0
LWPOLYLINE
5
170
100
AcDbEntity
8
0
100
AcDbPolyline
90
20
70
1
43
0.0
10
156.05039667647495
20
75.724999999999895
42
0.79247820598173624
10
159.26310332352503
20
75.724999999999909
10
184.94375000000002
20
75.724999999999895
10
184.94375000000002
20
91.224999999999994
42
0.41421356237310542
10
184.44375000000002
20
91.724999999999994
10
178.44374999999999
20
91.724999999999994
42
0.41421356237310542
10
177.94374999999999
20
91.224999999999994
10
177.94374999999999
20
79.724999999999909
10
138.44375000000002
20
79.724999999999909
10
138.44374999999999
20
92.224999999999994
42
0.41421356237312623
10
137.94374999999999
20
92.724999999999994
10
124.94374999999999
20
92.724999999999994
42
0.41421356237312623
10
124.44375000000001
20
92.224999999999994
10
124.44375000000001
20
79.724999999999909
10
84.943749999999994
20
79.724999999999909
10
84.943749999999994
20
91.224999999999994
42
0.41421356237307422
10
84.443749999999994
20
91.724999999999994
10
78.443749999999994
20
91.724999999999994
42
0.41421356237310025
10
77.943749999999994
20
91.224999999999994
10
77.943749999999994
20
75.724999999999895
0
LWPOLYLINE
5
171
100
AcDbEntity
8
0
100
AcDbPolyline
90
8
70
1
43
0.0
10
36.049999999999997
20
16.024999999999999
42
0.41421356237309631
10
35.549999999999997
20
16.525000000000002
10
22.549999999999994
20
16.524999999999999
42
0.41421356237309631
10
22.050000000000001
20
16.024999999999999
10
22.049999999999997
20
3.0249999999999999
42
0.41421356237309309
10
22.54999999999999
20
2.5249999999999995
10
35.550000000000004
20
2.5250000000000017
42
0.41421356237309698
10
36.050000000000004
20
3.0250000000000021
0
CIRCLE
5
172
100
AcDbEntity
8
0
100
AcDbCircle
10
37.73749999999999
20
15.776
30
0
40
1.6500000000000004
210
0
220
0
230
1
0
CIRCLE
5
173
100
AcDbEntity
8
0
100
AcDbCircle
10
41.570499999999996
20
68.153999999999996
30
0
40
1.6500000000000004
210
0
220
0
230
1
0
CIRCLE
5
174
100
AcDbEntity
8
0
100
AcDbCircle
10
333.47299999999996
20
17.959
30
0
40
1.6499999999999915
210
0
220
0
230
1
0
LWPOLYLINE
5
175
100
AcDbEntity
8
0
100
AcDbPolyline
90
18
70
1
43
0.0
10
37.344249999999995
20
72.174999999999997
42
0.41421356237309503
10
36.844249999999995
20
72.674999999999997
10
30.844249999999995
20
72.674999999999997
42
0.41421356237309503
10
30.344249999999988
20
72.174999999999997
10
30.344249999999988
20
60.674999999999997
10
28.90625
20
60.674999999999997
10
28.906249999999993
20
73.174999999999997
42
0.41421356237309503
10
28.406249999999993
20
73.674999999999997
10
15.406249999999995
20
73.674999999999997
42
0.41421356237309503
10
14.906249999999996
20
73.174999999999997
10
14.906249999999996
20
60.674999999999997
10
13.468249999999991
20
60.674999999999997
10
13.468249999999992
20
72.174999999999997
42
0.41421356237309115
10
12.968250000000001
20
72.674999999999997
10
6.9682499999999949
20
72.674999999999997
42
0.4142135623730937
10
6.4682499999999976
20
72.174999999999997
10
6.4682499999999976
20
56.674999999999997
10
37.344250000000002
20
56.674999999999997
0
LWPOLYLINE
5
176
100
AcDbEntity
8
0
100
AcDbPolyline
90
18
70
1
43
0.0
10
280.23175000000003
20
57.625
10
280.23175000000003
20
42.125
42
-0.41421356237313667
10
279.73175000000003
20
41.625
10
273.73175000000003
20
41.625000000000014
42
-0.41421356237312623
10
273.23175000000003
20
42.125
10
273.23175000000003
20
53.625
10
271.79375000000005
20
53.625
10
271.79375000000005
20
41.125
42
-0.41421356237312101
10
271.29375000000005
20
40.624999999999993
10
258.29375000000005
20
40.625
42
-0.41421356237313145
10
257.79375000000005
20
41.125
10
257.79375000000005
20
53.625
10
256.35575000000006
20
53.625
10
256.35575000000006
20
42.125
42
-0.41421356237313667
10
255.85575000000003
20
41.625
10
249.85575
20
41.625
42
-0.41421356237313667
10
249.35575
20
42.125
10
249.35575
20
57.625
0
LWPOLYLINE
5
177
100
AcDbEntity
8
0
100
AcDbPolyline
90
18
70
1
43
0.0
10
282.613
20
19.525000000000002
10
282.613
20
4.0249999999999986
42
-0.41421356237313145
10
282.113
20
3.5249999999999937
10
276.113
20
3.5249999999999826
42
-0.41421356237310153
10
275.613
20
4.0250000000000004
10
275.613
20
15.525000000000002
10
274.17500000000001
20
15.525000000000002
10
274.17500000000001
20
3.0250000000000021
42
-0.41421356237310281
10
273.67500000000001
20
2.5249999999999928
10
260.67500000000001
20
2.5249999999999995
42
-0.41421356237313273
10
260.17499999999995
20
3.0249999999999999
10
260.17499999999995
20
15.525000000000002
10
258.73699999999997
20
15.525000000000002
10
258.73699999999997
20
4.0249999999999986
42
-0.41421356237313145
10
258.23699999999997
20
3.5249999999999937
10
252.23700000000002
20
3.5249999999999826
42
-0.41421356237310153
10
251.73699999999999
20
4.0250000000000004
10
251.73699999999999
20
19.525000000000002
0
LWPOLYLINE
5
178
100
AcDbEntity
8
0
100
AcDbPolyline
90
8
70
1
43
0.0
10
213.05000000000001
20
16.525000000000006
42
0.41421356237312362
10
212.54999999999995
20
16.024999999999999
10
212.54999999999998
20
3.0249999999999999
42
0.41421356237310153
10
213.05000000000001
20
2.524999999999995
10
226.05000000000001
20
2.5249999999999928
42
0.41421356237313406
10
226.55000000000001
20
3.0250000000000021
10
226.55000000000001
20
16.024999999999999
42
0.41421356237313406
10
226.05000000000001
20
16.525000000000006
0
LWPOLYLINE
5
179
100
AcDbEntity
8
0
100
AcDbPolyline
90
8
70
1
43
0.0
10
188.44999999999999
20
16.024999999999999
42
0.41421356237313273
10
187.94999999999999
20
16.524999999999999
10
174.95000000000002
20
16.524999999999999
42
0.41421356237313406
10
174.44999999999999
20
16.024999999999991
10
174.44999999999999
20
3.0249999999999999
42
0.41421356237313273
10
174.95000000000002
20
2.5249999999999995
10
187.94999999999999
20
2.5249999999999999
42
0.41421356237313306
10
188.44999999999999
20
3.0250000000000066
0
LWPOLYLINE
5
180
100
AcDbEntity
8
0
100
AcDbPolyline
90
8
70
1
43
0.0
10
251.15000000000003
20
92.725000000000009
42
0.41421356237310542
10
250.65000000000003
20
92.224999999999994
10
250.65000000000001
20
79.224999999999994
42
0.41421356237312623
10
251.15000000000003
20
78.724999999999994
10
264.15000000000003
20
78.724999999999994
42
0.41421356237313667
10
264.65000000000003
20
79.224999999999994
10
264.65000000000003
20
92.224999999999994
42
0.41421356237313667
10
264.15000000000003
20
92.725000000000009
0
LWPOLYLINE
5
181
100
AcDbEntity
8
0
100
AcDbPolyline
90
8
70
1
43
0.0
10
207.50000000000003
20
16.024999999999999
42
0.41421356237312235
10
207.00000000000003
20
16.524999999999981
10
194.00000000000003
20
16.524999999999999
42
0.41421356237313406
10
193.5
20
16.024999999999991
10
193.5
20
3.0249999999999999
42
0.41421356237313273
10
194.00000000000003
20
2.5249999999999995
10
207
20
2.5249999999999928
42
0.41421356237313406
10
207.5
20
3.0250000000000021
0
LWPOLYLINE
5
182
100
AcDbEntity
8
0
100
AcDbPolyline
90
50
70
1
43
0.0
10
349.97899999999993
20
92.224999999999994
10
349.97899999999993
20
95.793529088548169
10
1.8857260612117699
20
95.79352908854807
42
0.41421356237309082
10
-0.11427393878819386
20
93.79352908854807
10
-0.11427393878818748
20
1.3464736742560923
42
0.4142135623730952
10
1.8857260612118103
20
-0.65352632574390745
10
304.87899812120719
20
-0.65352632574390057
10
304.87899812120719
20
9.9839734007197389
10
314.72413909820131
20
9.9839734007197443
10
314.72413909820131
20
-0.65352632574390501
10
349.97899999999993
20
-0.65352632574390057
10
349.97899999999993
20
3.0250000000001132
42
-0.41421356237310381
10
349.47899999999981
20
2.5249999999999977
10
336.47899999999993
20
2.525000000000011
42
-0.41421356237301959
10
335.97899999999993
20
3.0249999999999959
10
335.97899999999993
20
16.024999999999956
42
-0.41421356237309243
10
336.47899999999998
20
16.524999999999999
10
349.47899999999998
20
16.524999999999981
42
-0.41421356237301959
10
349.97899999999993
20
16.024999999999995
10
349.97899999999993
20
22.075000000000109
42
-0.41421356237310281
10
349.47899999999981
20
21.574999999999996
10
336.47899999999993
20
21.575000000000006
42
-0.4142135623730222
10
335.97899999999993
20
22.074999999999996
10
335.97899999999993
20
35.074999999999953
42
-0.41421356237309243
10
336.47899999999998
20
35.574999999999996
10
349.47899999999998
20
35.574999999999982
42
-0.4142135623730222
10
349.97899999999993
20
35.074999999999996
10
349.97899999999993
20
41.125000000000114
42
-0.41421356237310542
10
349.47899999999981
20
40.625
10
336.47899999999993
20
40.625000000000007
42
-0.4142135623730222
10
335.97899999999993
20
41.125
10
335.97899999999993
20
54.124999999999957
42
-0.4142135623730846
10
336.47899999999998
20
54.625
10
349.47899999999998
20
54.624999999999993
42
-0.4142135623730222
10
349.97899999999993
20
54.125000000000007
10
349.97899999999993
20
60.175000000000118
42
-0.41421356237310025
10
349.47899999999981
20
59.675000000000004
10
336.47899999999993
20
59.675000000000004
42
-0.4142135623730222
10
335.97899999999993
20
60.17499999999999
10
335.97899999999993
20
73.174999999999969
42
-0.41421356237308982
10
336.47899999999998
20
73.675000000000011
10
349.47899999999993
20
73.674999999999983
42
-0.4142135623730222
10
349.97899999999987
20
73.174999999999997
10
349.97899999999993
20
79.225000000000122
42
-0.41421356237310542
10
349.47899999999981
20
78.725000000000009
10
336.47899999999993
20
78.725000000000009
42
-0.4142135623730222
10
335.97899999999993
20
79.225000000000009
10
335.97899999999993
20
92.224999999999966
42
-0.41421356237309503
10
336.47899999999998
20
92.725000000000009
10
349.47899999999993
20
92.725000000000065
42
-0.4142135623730222
0
ENDSEC
0
SECTION
2
OBJECTS
0
DICTIONARY
5
C
100
AcDbDictionary
3
ACAD_GROUP
350
D
3
ACAD_MLINESTYLE
350
17
0
DICTIONARY
5
D
100
AcDbDictionary
0
DICTIONARY
5
1A
330
C
100
AcDbDictionary
0
DICTIONARY
5
17
100
AcDbDictionary
0
ENDSEC
0
EOF
